<?xml version="1.0" encoding="utf-8"?>
<!-- Generator: Adobe Illustrator 19.0.0, SVG Export Plug-In . SVG Version: 6.00 Build 0)  -->
<svg version="1.1" id="Layer_1" xmlns="http://www.w3.org/2000/svg" xmlns:xlink="http://www.w3.org/1999/xlink" x="0px" y="0px"
	 width="1400px" height="1400px" viewBox="0 0 1400 1400" enable-background="new 0 0 1400 1400" xml:space="preserve">
<rect id="XMLID_177_" x="5.5" y="5.8" fill="#8C693D" width="1400" height="1400"/>
<g id="XMLID_14_">
	<g id="XMLID_200_">
		<path id="XMLID_204_" fill="#5D5E5E" d="M2306.3,386.8c3.2,0,3.2-5,0-5C2303.1,381.8,2303.1,386.8,2306.3,386.8L2306.3,386.8z"/>
	</g>
</g>
<g id="XMLID_261_">
	<path id="XMLID_8_" fill-rule="evenodd" clip-rule="evenodd" fill="#745630" d="M708.5,1298.5h41.7c6.8,0,13.6-1.8,19.4-5.3
		l120.7-71.2c6.6-3.9,6.6-13.5-0.1-17.4l-106-60.4L708.5,1298.5z"/>
	<g id="XMLID_189_">
		<polygon id="XMLID_6_" fill-rule="evenodd" clip-rule="evenodd" fill="#745630" points="538.5,942 603.9,942 846.9,798.7 
			735.9,737.2 		"/>
		<polygon id="XMLID_136_" fill-rule="evenodd" clip-rule="evenodd" fill="#2B558C" points="798.6,781.8 417.3,560.2 157.2,710.4 
			538.5,932 		"/>
		<polygon id="XMLID_135_" fill-rule="evenodd" clip-rule="evenodd" fill="#0D2C54" points="781.6,741 790.2,736.1 790.2,786.6 
			781.6,782.2 		"/>
		<polygon id="XMLID_134_" fill-rule="evenodd" clip-rule="evenodd" fill="#2B558C" points="798.6,731.2 417.3,509.6 157.2,659.8 
			538.5,881.4 		"/>
		<polygon id="XMLID_133_" fill-rule="evenodd" clip-rule="evenodd" fill="#163863" points="798.6,731.2 538.5,881.4 538.5,891.5 
			798.6,740.9 		"/>
		<polygon id="XMLID_132_" fill-rule="evenodd" clip-rule="evenodd" fill="#204574" points="538.5,891.5 157.2,670 157.2,659.8 
			538.5,881.4 538.5,881.4 		"/>
		<polygon id="XMLID_131_" fill-rule="evenodd" clip-rule="evenodd" fill="#163863" points="798.6,781.8 538.5,931.9 538.5,942 
			798.6,791.4 		"/>
		<polygon id="XMLID_130_" fill-rule="evenodd" clip-rule="evenodd" fill="#204574" points="538.5,942 157.2,720.5 157.2,710.3 
			538.5,931.9 538.5,931.9 		"/>
		<polygon id="XMLID_129_" fill-rule="evenodd" clip-rule="evenodd" fill="#163863" points="798.6,731.2 790.2,736.1 790.2,796.3 
			798.6,791.5 		"/>
		<polygon id="XMLID_128_" fill-rule="evenodd" clip-rule="evenodd" fill="#D4CACB" points="781.6,750.7 538.5,891.5 538.5,922.6 
			781.6,782.2 		"/>
		<polygon id="XMLID_127_" fill-rule="evenodd" clip-rule="evenodd" fill="#CBC1C1" points="171.2,678.1 538.7,891.5 538.7,922.6 
			171.2,709.6 		"/>
		<polygon id="XMLID_126_" fill-rule="evenodd" clip-rule="evenodd" fill="#DDC933" points="565.4,865.9 565.4,875.9 574.5,870.6 
			574.5,860.6 		"/>
		<polygon id="XMLID_125_" fill-rule="evenodd" clip-rule="evenodd" fill="#F5C614" points="184.1,644.3 565.4,865.9 574.5,860.6 
			193.2,639 		"/>
	</g>
	<g id="XMLID_178_">
		<path id="XMLID_344_" fill-rule="evenodd" clip-rule="evenodd" fill="#745630" d="M239.2,1029.5L239.2,1029.5L239.2,1029.5
			L239.2,1029.5L239.2,1029.5L239.2,1029.5L239.2,1029.5L239.2,1029.5L239.2,1029.5 M237.4,1027.4L237.4,1027.4L237.4,1027.4
			L237.4,1027.4z M237.5,1027.6L237.5,1027.6L237.5,1027.6L237.5,1027.6z M237.6,1027.7c0,0,0-0.1-0.1-0.1
			C237.6,1027.6,237.6,1027.7,237.6,1027.7z M237.8,1028L237.8,1028L237.8,1028L237.8,1028z M237.9,1028.1c0,0-0.1-0.1-0.1-0.1
			C237.8,1028,237.8,1028,237.9,1028.1z M237.9,1028.1L237.9,1028.1L237.9,1028.1L237.9,1028.1z M238.2,1028.4
			C238.1,1028.4,238.1,1028.4,238.2,1028.4C238.1,1028.4,238.1,1028.4,238.2,1028.4z M238.2,1028.5L238.2,1028.5L238.2,1028.5
			L238.2,1028.5z M238.3,1028.6l-0.1-0.1C238.3,1028.5,238.3,1028.6,238.3,1028.6z M238.4,1028.7L238.4,1028.7L238.4,1028.7
			L238.4,1028.7z M238.5,1028.8c0,0-0.1-0.1-0.1-0.1C238.4,1028.7,238.5,1028.8,238.5,1028.8z M238.7,1029c0,0-0.1-0.1-0.1-0.1
			C238.6,1028.9,238.6,1028.9,238.7,1029z M238.9,1029.2c0,0-0.1-0.1-0.1-0.1C238.8,1029.1,238.8,1029.1,238.9,1029.2z M239,1029.3
			c0,0-0.1-0.1-0.1-0.1C238.9,1029.2,239,1029.3,239,1029.3z M239.2,1029.5c0,0-0.1-0.1-0.1-0.1
			C239.1,1029.4,239.2,1029.4,239.2,1029.5z M239.4,1029.6c0,0-0.1-0.1-0.1-0.1C239.3,1029.6,239.4,1029.6,239.4,1029.6z
			 M239.6,1029.8c-0.1,0-0.1-0.1-0.2-0.1C239.5,1029.7,239.6,1029.8,239.6,1029.8z M239.9,1030c-0.1,0-0.1-0.1-0.2-0.1
			C239.8,1029.9,239.8,1029.9,239.9,1030z M240.1,1030.1c-0.1,0-0.1-0.1-0.2-0.1C240,1030,240,1030.1,240.1,1030.1z M240.3,1030.3
			c-0.1,0-0.1-0.1-0.2-0.1C240.2,1030.2,240.3,1030.2,240.3,1030.3z M240.6,1030.4c-0.1,0-0.1-0.1-0.2-0.1
			C240.4,1030.3,240.5,1030.4,240.6,1030.4z M826,1201.8c0,0-0.1,0.1-0.1,0.1C825.9,1201.9,826,1201.8,826,1201.8z M826.3,1201.6
			l-0.1,0.1C826.2,1201.7,826.3,1201.7,826.3,1201.6z M826.5,1201.5c0,0-0.1,0.1-0.1,0.1C826.4,1201.6,826.4,1201.5,826.5,1201.5z
			 M826.6,1201.4c0,0-0.1,0.1-0.1,0.1 M826.8,1201.3c0,0-0.1,0.1-0.1,0.1C826.7,1201.4,826.7,1201.4,826.8,1201.3z M826.9,1201.2
			c0,0-0.1,0.1-0.1,0.1C826.8,1201.3,826.8,1201.3,826.9,1201.2z M827,1201.1c0,0-0.1,0.1-0.1,0.1
			C826.9,1201.2,827,1201.2,827,1201.1z M827.1,1201c0,0-0.1,0.1-0.1,0.1C827.1,1201.1,827.1,1201,827.1,1201z M827.5,1200.7
			C827.5,1200.7,827.4,1200.8,827.5,1200.7C827.4,1200.8,827.5,1200.7,827.5,1200.7z M827.6,1200.6
			C827.6,1200.6,827.5,1200.7,827.6,1200.6C827.5,1200.7,827.6,1200.6,827.6,1200.6z M827.7,1200.5L827.7,1200.5
			C827.7,1200.5,827.7,1200.5,827.7,1200.5z M828,1200.2L828,1200.2C827.9,1200.2,828,1200.2,828,1200.2z M255.9,978.5l2-1.2"/>
		<path id="XMLID_124_" fill-rule="evenodd" clip-rule="evenodd" fill="#A7AAAC" d="M858.6,1210.9c0.1,1.5-1.1,3-3,4.1l-141.3,81.6
			c-4.2,2.4-8.1,2.5-12.5,0l-462.1-266.8c-2.7-1.6-4-3.8-3.9-6.1h0V994h0l0,0c0,0.1,0,0.1,0,0.2l0,0c0,0.1,0,0.1,0,0.2l0,0
			c0,0.1,0,0.1,0,0.2l0,0c0,0,0,0.1,0,0.1l0,0c0,0.1,0,0.1,0,0.2l0,0c0,0.1,0,0.1,0,0.1l0,0l0,0.1l0,0.1l0,0l0,0.1l0,0
			c0,0,0,0.1,0,0.1c0,0,0,0.1,0,0.1c0,0,0,0.1,0,0.1l0,0.1c0,0,0,0.1,0.1,0.1l0,0.1c0,0,0,0.1,0.1,0.1l0,0.1c0,0,0,0.1,0.1,0.1
			c0,0,0,0.1,0.1,0.1l0,0.1c0,0,0,0.1,0.1,0.1l0,0.1c0,0,0.1,0.1,0.1,0.1l0,0.1c0,0,0.1,0.1,0.1,0.1l0,0.1c0,0,0.1,0.1,0.1,0.1l0,0
			c0,0,0.1,0.1,0.1,0.1l0,0c0,0,0.1,0.1,0.1,0.1l0,0c0,0,0.1,0.1,0.1,0.1l0,0c0,0.1,0.1,0.1,0.1,0.2l0,0c0.1,0.1,0.1,0.1,0.2,0.2
			l0,0c0.1,0,0.1,0.1,0.2,0.1l0,0c0.1,0,0.1,0.1,0.2,0.1l0,0c0.1,0,0.1,0.1,0.2,0.1l0,0c0.1,0,0.1,0.1,0.2,0.1l0,0
			c0.1,0,0.1,0.1,0.2,0.1l0,0c0.1,0,0.1,0.1,0.2,0.1l0,0c0.1,0,0.1,0.1,0.2,0.1l0,0c0.1,0,0.2,0.1,0.2,0.1l0,0
			c0.1,0,0.2,0.1,0.2,0.1l462.1,266.8c4.4,2.5,8.3,2.4,12.5,0l112.4-64.9l28.8-16.7c1.9-1.1,3-2.5,3-4L858.6,1210.9L858.6,1210.9z"
			/>
		<path id="XMLID_123_" fill-rule="evenodd" clip-rule="evenodd" fill="#CACCCF" d="M239.7,987.8l137.2-79.2c4.1-2.4,8.8-2.8,13-0.4
			l466.5,269.3c3.6,2.1,2.6,5.3-0.8,7.2l-141.3,81.6c-4.2,2.4-8.1,2.5-12.5,0L239.7,999.5C234.4,996.5,234.5,990.9,239.7,987.8"/>
		<path id="XMLID_322_" fill-rule="evenodd" clip-rule="evenodd" fill="#7D7F87" d="M459.6,955.5L459.6,955.5l0,0.2
			C459.6,955.6,459.6,955.6,459.6,955.5 M459.6,962.8c0,0.1,0,0.1,0,0.2v0c0,0.9-0.6,1.9-1.5,2.4l-31.2,18c-2.5,1.4-5.8,0.9-7.1,0.2
			l-6.1-3.5c-1.3-0.8-2-2.2-2.2-3.7h0v0c0-0.3,0-0.6,0-0.8v-6.2h0c0,0.2,0,0.4,0.1,0.6l0,0c0,0,0,0.1,0,0.1l0,0c0,0,0,0.1,0,0.1l0,0
			c0,0,0,0.1,0,0.1l0,0c0,0,0,0.1,0,0.1l0,0l0,0.1l0,0l0,0.1l0,0.1l0,0l0,0.1l0,0.1c0,0,0,0.1,0,0.1l0,0.1l0,0.1c0,0,0,0.1,0,0.1
			l0,0c0,0,0,0.1,0,0.1l0,0l0,0.1l0,0c0,0,0,0.1,0.1,0.1l0,0c0,0,0,0.1,0.1,0.1l0,0c0,0,0,0.1,0.1,0.1l0,0c0,0,0,0.1,0.1,0.1l0,0
			c0,0,0,0.1,0.1,0.1l0,0c0,0,0,0.1,0.1,0.1l0,0c0,0,0.1,0.1,0.1,0.1l0,0c0,0,0.1,0.1,0.1,0.1l0,0c0,0,0.1,0.1,0.1,0.1l0,0l0,0l0,0
			c0,0,0.1,0.1,0.1,0.1l0,0c0,0,0.1,0.1,0.1,0.1l0,0c0,0,0.1,0.1,0.1,0.1l0,0c0,0,0.1,0.1,0.1,0.1l0,0c0,0,0.1,0.1,0.1,0.1l0,0
			c0,0,0.1,0.1,0.1,0.1l6.1,3.5c1.4,0.8,4.7,1.3,7.1-0.2l31.2-18c0.9-0.5,1.5-1.5,1.5-2.4V962.8z"/>
		<path id="XMLID_120_" fill-rule="evenodd" clip-rule="evenodd" fill="#989AA1" d="M413.6,964.7l26.9-15.5c3.1-1.8,6.5-2.1,9.7-0.3
			l8.2,4.7c1.9,1.1,1.6,3.7-0.2,4.7l-31.2,18c-2.5,1.4-5.8,0.9-7.1,0.2l-6.1-3.5C410.7,971.3,410.7,966.4,413.6,964.7"/>
		<path id="XMLID_318_" fill-rule="evenodd" clip-rule="evenodd" fill="#7D7F87" d="M415.9,980.7L415.9,980.7l0,0.2
			C415.9,980.9,415.9,980.8,415.9,980.7 M415.9,988c0,0.1,0,0.1,0,0.2v0h0c0,0.9-0.6,1.9-1.5,2.4l-31.2,18c-2.5,1.4-5.8,0.9-7.1,0.2
			l-6.1-3.5c-1.3-0.8-2-2.2-2.2-3.7h0v0c0-0.3,0-0.6,0-0.8v-6.2h0c0,0.2,0,0.4,0.1,0.6l0,0c0,0,0,0.1,0,0.1l0,0c0,0,0,0.1,0,0.1l0,0
			c0,0,0,0.1,0,0.1l0,0c0,0,0,0.1,0,0.1l0,0l0,0.1l0,0l0,0.1l0,0.1l0,0l0,0.1l0,0.1c0,0,0,0.1,0,0.1l0,0.1l0,0.1c0,0,0,0.1,0,0.1
			l0,0c0,0,0,0.1,0,0.1l0,0l0,0.1l0,0c0,0,0,0.1,0.1,0.1l0,0c0,0,0,0.1,0.1,0.1l0,0c0,0,0,0.1,0.1,0.1l0,0c0,0,0,0.1,0.1,0.1l0,0
			c0,0,0,0.1,0.1,0.1l0,0c0,0,0,0.1,0.1,0.1l0,0c0,0,0.1,0.1,0.1,0.1l0,0c0,0,0.1,0.1,0.1,0.1l0,0c0,0,0.1,0.1,0.1,0.1l0,0l0,0l0,0
			c0,0,0.1,0.1,0.1,0.1l0,0c0,0,0.1,0.1,0.1,0.1l0,0c0,0,0.1,0.1,0.1,0.1l0,0c0,0,0.1,0.1,0.1,0.1l0,0c0,0,0.1,0.1,0.1,0.1l0,0
			c0,0,0.1,0.1,0.1,0.1l6.1,3.5c1.4,0.8,4.7,1.3,7.1-0.2l31.2-18c0.9-0.5,1.5-1.5,1.5-2.4V988z"/>
		<path id="XMLID_117_" fill-rule="evenodd" clip-rule="evenodd" fill="#989AA1" d="M369.9,990l26.9-15.5c3.1-1.8,6.5-2.1,9.7-0.3
			l8.2,4.7c1.9,1.1,1.6,3.7-0.2,4.7l-31.2,18c-2.5,1.4-5.8,0.9-7.1,0.2l-6.1-3.5C367.1,996.5,367,991.6,369.9,990"/>
		<path id="XMLID_314_" fill-rule="evenodd" clip-rule="evenodd" fill="#7D7F87" d="M372.2,1005.9L372.2,1005.9l0,0.2
			C372.2,1006.1,372.2,1006,372.2,1005.9 M372.2,1013.2c0,0.1,0,0.1,0,0.2v0h0c0,0.9-0.6,1.9-1.5,2.4l-31.2,18
			c-2.5,1.4-5.8,0.9-7.1,0.2l-6.1-3.5c-1.3-0.8-2-2.2-2.2-3.7h0v0c0-0.3,0-0.6,0-0.8v-6.2h0c0,0.2,0,0.4,0.1,0.6l0,0
			c0,0,0,0.1,0,0.1l0,0c0,0,0,0.1,0,0.1l0,0c0,0,0,0.1,0,0.1l0,0c0,0,0,0.1,0,0.1l0,0l0,0.1l0,0l0,0.1l0,0.1l0,0l0,0.1l0,0.1
			c0,0,0,0.1,0,0.1l0,0.1l0,0.1c0,0,0,0.1,0,0.1l0,0c0,0,0,0.1,0,0.1l0,0l0,0.1l0,0c0,0,0,0.1,0.1,0.1l0,0c0,0,0,0.1,0.1,0.1l0,0
			c0,0,0,0.1,0.1,0.1l0,0c0,0,0,0.1,0.1,0.1l0,0c0,0,0,0.1,0.1,0.1l0,0c0,0,0,0.1,0.1,0.1l0,0c0,0,0.1,0.1,0.1,0.1l0,0
			c0,0,0.1,0.1,0.1,0.1l0,0c0,0,0.1,0.1,0.1,0.1l0,0l0,0l0,0c0,0,0.1,0.1,0.1,0.1l0,0c0,0,0.1,0.1,0.1,0.1l0,0c0,0,0.1,0.1,0.1,0.1
			l0,0c0,0,0.1,0.1,0.1,0.1l0,0c0,0,0.1,0.1,0.1,0.1l0,0c0,0,0.1,0.1,0.1,0.1l6.1,3.5c1.4,0.8,4.7,1.3,7.1-0.2l31.2-18
			c0.9-0.5,1.5-1.5,1.5-2.4V1013.2z"/>
		<path id="XMLID_114_" fill-rule="evenodd" clip-rule="evenodd" fill="#989AA1" d="M326.2,1015.2l26.9-15.5
			c3.1-1.8,6.5-2.1,9.7-0.3l8.2,4.7c1.9,1.1,1.6,3.7-0.2,4.7l-31.2,18c-2.5,1.4-5.8,0.9-7.1,0.2l-6.1-3.5
			C323.4,1021.7,323.4,1016.8,326.2,1015.2"/>
		<path id="XMLID_310_" fill-rule="evenodd" clip-rule="evenodd" fill="#7D7F87" d="M484.8,970.1L484.8,970.1l0,0.2
			C484.8,970.2,484.8,970.2,484.8,970.1 M484.8,977.3c0,0.1,0,0.1,0,0.2v0h0c0,0.9-0.6,1.9-1.5,2.4l-31.2,18
			c-2.5,1.4-5.8,0.9-7.1,0.2l-6.1-3.5c-1.3-0.8-2-2.2-2.2-3.7h0v0c0-0.3,0-0.6,0-0.8v-6.2h0c0,0.2,0,0.4,0.1,0.6l0,0
			c0,0,0,0.1,0,0.1l0,0c0,0,0,0.1,0,0.1l0,0c0,0,0,0.1,0,0.1l0,0c0,0,0,0.1,0,0.1l0,0l0,0.1l0,0l0,0.1l0,0.1l0,0l0,0.1l0,0.1
			c0,0,0,0.1,0,0.1l0,0.1l0,0.1c0,0,0,0.1,0,0.1l0,0c0,0,0,0.1,0,0.1l0,0l0,0.1l0,0c0,0,0,0.1,0.1,0.1l0,0c0,0,0,0.1,0.1,0.1l0,0
			c0,0,0,0.1,0.1,0.1l0,0c0,0,0,0.1,0.1,0.1l0,0c0,0,0,0.1,0.1,0.1l0,0c0,0,0,0.1,0.1,0.1l0,0c0,0,0.1,0.1,0.1,0.1l0,0
			c0,0,0.1,0.1,0.1,0.1l0,0c0,0,0.1,0.1,0.1,0.1l0,0l0,0l0,0c0,0,0.1,0.1,0.1,0.1l0,0c0,0,0.1,0.1,0.1,0.1l0,0c0,0,0.1,0.1,0.1,0.1
			l0,0c0,0,0.1,0.1,0.1,0.1l0,0c0,0,0.1,0.1,0.1,0.1l0,0c0,0,0.1,0.1,0.1,0.1l6.1,3.5c1.4,0.8,4.7,1.3,7.1-0.2l31.2-18
			c0.9-0.5,1.5-1.5,1.5-2.4V977.3z"/>
		<path id="XMLID_111_" fill-rule="evenodd" clip-rule="evenodd" fill="#989AA1" d="M438.8,979.3l26.9-15.5c3.1-1.8,6.5-2.1,9.7-0.3
			l8.2,4.7c1.9,1.1,1.6,3.7-0.2,4.7l-31.2,18c-2.5,1.4-5.8,0.9-7.1,0.2l-6.1-3.5C436,985.9,436,981,438.8,979.3"/>
		<path id="XMLID_306_" fill-rule="evenodd" clip-rule="evenodd" fill="#7D7F87" d="M441.1,995.3L441.1,995.3l0,0.2
			C441.2,995.4,441.2,995.4,441.1,995.3 M441.2,1002.6c0,0.1,0,0.1,0,0.2v0c0,0.9-0.6,1.9-1.5,2.4l-31.2,18
			c-2.5,1.4-5.8,0.9-7.1,0.2l-6.1-3.5c-1.3-0.8-2-2.2-2.2-3.7h0v0c0-0.3,0-0.6,0-0.8v-6.2h0c0,0.2,0,0.4,0.1,0.6l0,0
			c0,0,0,0.1,0,0.1l0,0c0,0,0,0.1,0,0.1l0,0c0,0,0,0.1,0,0.1l0,0c0,0,0,0.1,0,0.1l0,0l0,0.1l0,0l0,0.1l0,0.1l0,0l0,0.1l0,0.1
			c0,0,0,0.1,0,0.1l0,0.1l0,0.1c0,0,0,0.1,0,0.1l0,0c0,0,0,0.1,0,0.1l0,0l0,0.1l0,0c0,0,0,0.1,0.1,0.1l0,0c0,0,0,0.1,0.1,0.1l0,0
			c0,0,0,0.1,0.1,0.1l0,0c0,0,0,0.1,0.1,0.1l0,0c0,0,0,0.1,0.1,0.1l0,0c0,0,0,0.1,0.1,0.1l0,0c0,0,0.1,0.1,0.1,0.1l0,0
			c0,0,0.1,0.1,0.1,0.1l0,0c0,0,0.1,0.1,0.1,0.1l0,0l0,0l0,0c0,0,0.1,0.1,0.1,0.1l0,0c0,0,0.1,0.1,0.1,0.1l0,0c0,0,0.1,0.1,0.1,0.1
			l0,0c0,0,0.1,0.1,0.1,0.1l0,0c0,0,0.1,0.1,0.1,0.1l0,0c0,0,0.1,0.1,0.1,0.1l6.1,3.5c1.4,0.8,4.7,1.3,7.1-0.2l31.2-18
			c0.9-0.5,1.5-1.5,1.5-2.4V1002.6z"/>
		<path id="XMLID_108_" fill-rule="evenodd" clip-rule="evenodd" fill="#989AA1" d="M395.1,1004.5L422,989c3.1-1.8,6.5-2.1,9.7-0.3
			l8.2,4.7c1.9,1.1,1.6,3.7-0.2,4.7l-31.2,18c-2.5,1.4-5.8,0.9-7.1,0.2l-6.1-3.5C392.3,1011.1,392.3,1006.2,395.1,1004.5"/>
		<path id="XMLID_302_" fill-rule="evenodd" clip-rule="evenodd" fill="#7D7F87" d="M397.5,1020.5L397.5,1020.5l0,0.2
			C397.5,1020.7,397.5,1020.6,397.5,1020.5 M397.5,1027.8c0,0.1,0,0.1,0,0.2v0h0c0,0.9-0.6,1.9-1.5,2.4l-31.2,18
			c-2.5,1.4-5.8,0.9-7.1,0.2l-6.1-3.5c-1.3-0.8-2-2.2-2.2-3.7h0v0c0-0.3,0-0.6,0-0.8v-6.2h0c0,0.2,0,0.4,0.1,0.6l0,0
			c0,0,0,0.1,0,0.1l0,0c0,0,0,0.1,0,0.1l0,0c0,0,0,0.1,0,0.1l0,0c0,0,0,0.1,0,0.1l0,0l0,0.1l0,0l0,0.1l0,0.1l0,0l0,0.1l0,0.1
			c0,0,0,0.1,0,0.1l0,0.1l0,0.1c0,0,0,0.1,0,0.1l0,0c0,0,0,0.1,0,0.1l0,0l0,0.1l0,0c0,0,0,0.1,0.1,0.1l0,0c0,0,0,0.1,0.1,0.1l0,0
			c0,0,0,0.1,0.1,0.1l0,0c0,0,0,0.1,0.1,0.1l0,0c0,0,0,0.1,0.1,0.1l0,0c0,0,0,0.1,0.1,0.1l0,0c0,0,0.1,0.1,0.1,0.1l0,0
			c0,0,0.1,0.1,0.1,0.1l0,0c0,0,0.1,0.1,0.1,0.1l0,0l0,0l0,0c0,0,0.1,0.1,0.1,0.1l0,0c0,0,0.1,0.1,0.1,0.1l0,0c0,0,0.1,0.1,0.1,0.1
			l0,0c0,0,0.1,0.1,0.1,0.1l0,0c0,0,0.1,0.1,0.1,0.1l0,0c0,0,0.1,0.1,0.1,0.1l6.1,3.5c1.4,0.8,4.7,1.3,7.1-0.2l31.2-18
			c0.9-0.5,1.5-1.5,1.5-2.4V1027.8z"/>
		<path id="XMLID_105_" fill-rule="evenodd" clip-rule="evenodd" fill="#989AA1" d="M351.5,1029.8l26.9-15.5
			c3.1-1.8,6.5-2.1,9.7-0.3l8.2,4.7c1.9,1.1,1.6,3.7-0.2,4.7l-31.2,18c-2.5,1.4-5.8,0.9-7.1,0.2l-6.1-3.5
			C348.7,1036.3,348.6,1031.4,351.5,1029.8"/>
		<path id="XMLID_298_" fill-rule="evenodd" clip-rule="evenodd" fill="#7D7F87" d="M510.1,984.7L510.1,984.7l0,0.2
			C510.1,984.8,510.1,984.7,510.1,984.7 M510.1,991.9c0,0.1,0,0.1,0,0.2v0h0c0,0.9-0.6,1.9-1.5,2.4l-31.2,18
			c-2.5,1.4-5.8,0.9-7.1,0.2l-6.1-3.5c-1.3-0.8-2-2.2-2.2-3.7h0v0c0-0.3,0-0.6,0-0.8v-6.2h0c0,0.2,0,0.4,0.1,0.6l0,0
			c0,0,0,0.1,0,0.1l0,0c0,0,0,0.1,0,0.1l0,0c0,0,0,0.1,0,0.1l0,0c0,0,0,0.1,0,0.1l0,0l0,0.1l0,0l0,0.1l0,0.1l0,0l0,0.1l0,0.1
			c0,0,0,0.1,0,0.1l0,0.1l0,0.1c0,0,0,0.1,0,0.1l0,0c0,0,0,0.1,0,0.1l0,0l0,0.1l0,0c0,0,0,0.1,0.1,0.1l0,0c0,0,0,0.1,0.1,0.1l0,0
			c0,0,0,0.1,0.1,0.1l0,0c0,0,0,0.1,0.1,0.1l0,0c0,0,0,0.1,0.1,0.1l0,0c0,0,0,0.1,0.1,0.1l0,0c0,0,0.1,0.1,0.1,0.1l0,0
			c0,0,0.1,0.1,0.1,0.1l0,0c0,0,0.1,0.1,0.1,0.1l0,0l0,0l0,0c0,0,0.1,0.1,0.1,0.1l0,0c0,0,0.1,0.1,0.1,0.1l0,0c0,0,0.1,0.1,0.1,0.1
			l0,0c0,0,0.1,0.1,0.1,0.1l0,0c0,0,0.1,0.1,0.1,0.1l0,0c0,0,0.1,0.1,0.1,0.1l6.1,3.5c1.4,0.8,4.7,1.3,7.1-0.2l31.2-18
			c0.9-0.5,1.5-1.5,1.5-2.4V991.9z"/>
		<path id="XMLID_102_" fill-rule="evenodd" clip-rule="evenodd" fill="#989AA1" d="M464.1,993.9l26.9-15.5c3.1-1.8,6.5-2.1,9.7-0.3
			l8.2,4.7c1.9,1.1,1.6,3.7-0.2,4.7l-31.2,18c-2.5,1.4-5.8,0.9-7.1,0.2l-6.1-3.5C461.3,1000.5,461.2,995.6,464.1,993.9"/>
		<path id="XMLID_294_" fill-rule="evenodd" clip-rule="evenodd" fill="#7D7F87" d="M466.4,1009.9L466.4,1009.9l0,0.2
			C466.4,1010,466.4,1010,466.4,1009.9 M466.4,1017.1c0,0.1,0,0.1,0,0.2v0h0c0,0.9-0.6,1.9-1.5,2.4l-31.2,18
			c-2.5,1.4-5.8,0.9-7.1,0.2l-6.1-3.5c-1.3-0.8-2-2.2-2.2-3.7h0v0c0-0.3,0-0.6,0-0.8v-6.2h0c0,0.2,0,0.4,0.1,0.6l0,0
			c0,0,0,0.1,0,0.1l0,0c0,0,0,0.1,0,0.1l0,0c0,0,0,0.1,0,0.1l0,0c0,0,0,0.1,0,0.1l0,0l0,0.1l0,0l0,0.1l0,0.1l0,0l0,0.1l0,0.1
			c0,0,0,0.1,0,0.1l0,0.1l0,0.1c0,0,0,0.1,0,0.1l0,0c0,0,0,0.1,0,0.1l0,0l0,0.1l0,0c0,0,0,0.1,0.1,0.1l0,0c0,0,0,0.1,0.1,0.1l0,0
			c0,0,0,0.1,0.1,0.1l0,0c0,0,0,0.1,0.1,0.1l0,0c0,0,0,0.1,0.1,0.1l0,0c0,0,0,0.1,0.1,0.1l0,0c0,0,0.1,0.1,0.1,0.1l0,0
			c0,0,0.1,0.1,0.1,0.1l0,0c0,0,0.1,0.1,0.1,0.1l0,0l0,0l0,0c0,0,0.1,0.1,0.1,0.1l0,0c0,0,0.1,0.1,0.1,0.1l0,0c0,0,0.1,0.1,0.1,0.1
			l0,0c0,0,0.1,0.1,0.1,0.1l0,0c0,0,0.1,0.1,0.1,0.1l0,0c0,0,0.1,0.1,0.1,0.1l6.1,3.5c1.4,0.8,4.7,1.3,7.1-0.2l31.2-18
			c0.9-0.5,1.5-1.5,1.5-2.4V1017.1z"/>
		<path id="XMLID_99_" fill-rule="evenodd" clip-rule="evenodd" fill="#989AA1" d="M420.4,1019.1l26.9-15.5c3.1-1.8,6.5-2.1,9.7-0.3
			l8.2,4.7c1.9,1.1,1.6,3.7-0.2,4.7l-31.2,18c-2.5,1.4-5.8,0.9-7.1,0.2l-6.1-3.5C417.6,1025.7,417.6,1020.8,420.4,1019.1"/>
		<path id="XMLID_290_" fill-rule="evenodd" clip-rule="evenodd" fill="#7D7F87" d="M422.7,1035.1L422.7,1035.1l0,0.2
			C422.7,1035.3,422.7,1035.2,422.7,1035.1 M422.7,1042.4c0,0.1,0,0.1,0,0.2v0c0,0.9-0.6,1.9-1.5,2.4l-31.2,18
			c-2.5,1.4-5.8,0.9-7.1,0.2l-6.1-3.5c-1.3-0.8-2-2.2-2.2-3.7h0v0c0-0.3,0-0.6,0-0.8v-6.2h0c0,0.2,0,0.4,0.1,0.6l0,0
			c0,0,0,0.1,0,0.1l0,0c0,0,0,0.1,0,0.1l0,0c0,0,0,0.1,0,0.1l0,0c0,0,0,0.1,0,0.1l0,0l0,0.1l0,0l0,0.1l0,0.1l0,0l0,0.1l0,0.1
			c0,0,0,0.1,0,0.1l0,0.1l0,0.1c0,0,0,0.1,0,0.1l0,0c0,0,0,0.1,0,0.1l0,0l0,0.1l0,0c0,0,0,0.1,0.1,0.1l0,0c0,0,0,0.1,0.1,0.1l0,0
			c0,0,0,0.1,0.1,0.1l0,0c0,0,0,0.1,0.1,0.1l0,0c0,0,0,0.1,0.1,0.1l0,0c0,0,0,0.1,0.1,0.1l0,0c0,0,0.1,0.1,0.1,0.1l0,0
			c0,0,0.1,0.1,0.1,0.1l0,0c0,0,0.1,0.1,0.1,0.1l0,0l0,0l0,0c0,0,0.1,0.1,0.1,0.1l0,0c0,0,0.1,0.1,0.1,0.1l0,0c0,0,0.1,0.1,0.1,0.1
			l0,0c0,0,0.1,0.1,0.1,0.1l0,0c0,0,0.1,0.1,0.1,0.1l0,0c0,0,0.1,0.1,0.1,0.1l6.1,3.5c1.4,0.8,4.7,1.3,7.1-0.2l31.2-18
			c0.9-0.5,1.5-1.5,1.5-2.4V1042.4z"/>
		<path id="XMLID_96_" fill-rule="evenodd" clip-rule="evenodd" fill="#989AA1" d="M376.7,1044.3l26.9-15.5c3.1-1.8,6.5-2.1,9.7-0.3
			l8.2,4.7c1.9,1.1,1.6,3.7-0.2,4.7l-31.2,18c-2.5,1.4-5.8,0.9-7.1,0.2l-6.1-3.5C373.9,1050.9,373.9,1046,376.7,1044.3"/>
		<path id="XMLID_286_" fill-rule="evenodd" clip-rule="evenodd" fill="#7D7F87" d="M535.4,999.3L535.4,999.3l0,0.2
			C535.4,999.4,535.4,999.3,535.4,999.3 M535.4,1006.5c0,0.1,0,0.1,0,0.2v0h0c0,0.9-0.6,1.9-1.5,2.4l-31.2,18
			c-2.5,1.4-5.8,0.9-7.1,0.2l-6.1-3.5c-1.3-0.8-2-2.2-2.2-3.7h0v0c0-0.3,0-0.6,0-0.8v-6.2h0c0,0.2,0,0.4,0.1,0.6l0,0
			c0,0,0,0.1,0,0.1l0,0c0,0,0,0.1,0,0.1l0,0c0,0,0,0.1,0,0.1l0,0c0,0,0,0.1,0,0.1l0,0l0,0.1l0,0l0,0.1l0,0.1l0,0l0,0.1l0,0.1
			c0,0,0,0.1,0,0.1l0,0.1l0,0.1c0,0,0,0.1,0,0.1l0,0c0,0,0,0.1,0,0.1l0,0l0,0.1l0,0c0,0,0,0.1,0.1,0.1l0,0c0,0,0,0.1,0.1,0.1l0,0
			c0,0,0,0.1,0.1,0.1l0,0c0,0,0,0.1,0.1,0.1l0,0c0,0,0,0.1,0.1,0.1l0,0c0,0,0,0.1,0.1,0.1l0,0c0,0,0.1,0.1,0.1,0.1l0,0
			c0,0,0.1,0.1,0.1,0.1l0,0c0,0,0.1,0.1,0.1,0.1l0,0l0,0l0,0c0,0,0.1,0.1,0.1,0.1l0,0c0,0,0.1,0.1,0.1,0.1l0,0c0,0,0.1,0.1,0.1,0.1
			l0,0c0,0,0.1,0.1,0.1,0.1l0,0c0,0,0.1,0.1,0.1,0.1l0,0c0,0,0.1,0.1,0.1,0.1l6.1,3.5c1.4,0.8,4.7,1.3,7.1-0.2l31.2-18
			c0.9-0.5,1.5-1.5,1.5-2.4V1006.5z"/>
		<path id="XMLID_93_" fill-rule="evenodd" clip-rule="evenodd" fill="#989AA1" d="M489.4,1008.5l26.9-15.5c3.1-1.8,6.5-2.1,9.7-0.3
			l8.2,4.7c1.9,1.1,1.6,3.7-0.2,4.7l-31.2,18c-2.5,1.4-5.8,0.9-7.1,0.2l-6.1-3.5C486.5,1015.1,486.5,1010.1,489.4,1008.5"/>
		<path id="XMLID_282_" fill-rule="evenodd" clip-rule="evenodd" fill="#7D7F87" d="M491.7,1024.5L491.7,1024.5l0,0.2
			C491.7,1024.6,491.7,1024.5,491.7,1024.5 M491.7,1031.7c0,0.1,0,0.1,0,0.2v0h0c0,0.9-0.6,1.9-1.5,2.4l-31.2,18
			c-2.5,1.4-5.8,0.9-7.1,0.2l-6.1-3.5c-1.3-0.8-2-2.2-2.2-3.7h0v0c0-0.3,0-0.6,0-0.8v-6.2h0c0,0.2,0,0.4,0.1,0.6l0,0
			c0,0,0,0.1,0,0.1l0,0c0,0,0,0.1,0,0.1l0,0c0,0,0,0.1,0,0.1l0,0c0,0,0,0.1,0,0.1l0,0l0,0.1l0,0l0,0.1l0,0.1l0,0l0,0.1l0,0.1
			c0,0,0,0.1,0,0.1l0,0.1l0,0.1c0,0,0,0.1,0,0.1l0,0c0,0,0,0.1,0,0.1l0,0l0,0.1l0,0c0,0,0,0.1,0.1,0.1l0,0c0,0,0,0.1,0.1,0.1l0,0
			c0,0,0,0.1,0.1,0.1l0,0c0,0,0,0.1,0.1,0.1l0,0c0,0,0,0.1,0.1,0.1l0,0c0,0,0,0.1,0.1,0.1l0,0c0,0,0.1,0.1,0.1,0.1l0,0
			c0,0,0.1,0.1,0.1,0.1l0,0c0,0,0.1,0.1,0.1,0.1l0,0l0,0l0,0c0,0,0.1,0.1,0.1,0.1l0,0c0,0,0.1,0.1,0.1,0.1l0,0c0,0,0.1,0.1,0.1,0.1
			l0,0c0,0,0.1,0.1,0.1,0.1l0,0c0,0,0.1,0.1,0.1,0.1l0,0c0,0,0.1,0.1,0.1,0.1l6.1,3.5c1.4,0.8,4.7,1.3,7.1-0.2l31.2-18
			c0.9-0.5,1.5-1.5,1.5-2.4V1031.7z"/>
		<path id="XMLID_90_" fill-rule="evenodd" clip-rule="evenodd" fill="#989AA1" d="M445.7,1033.7l26.9-15.5c3.1-1.8,6.5-2.1,9.7-0.3
			l8.2,4.7c1.9,1.1,1.6,3.7-0.2,4.7l-31.2,18c-2.5,1.4-5.8,0.9-7.1,0.2l-6.1-3.5C442.9,1040.3,442.8,1035.4,445.7,1033.7"/>
		<path id="XMLID_278_" fill-rule="evenodd" clip-rule="evenodd" fill="#7D7F87" d="M448,1049.7L448,1049.7l0,0.2
			C448,1049.8,448,1049.8,448,1049.7 M448,1057c0,0.1,0,0.1,0,0.2v0h0c0,0.9-0.6,1.9-1.5,2.4l-31.2,18c-2.5,1.4-5.8,0.9-7.1,0.2
			l-6.1-3.5c-1.3-0.8-2-2.2-2.2-3.7h0v0c0-0.3,0-0.6,0-0.8v-6.2h0c0,0.2,0,0.4,0.1,0.6l0,0c0,0,0,0.1,0,0.1l0,0c0,0,0,0.1,0,0.1l0,0
			c0,0,0,0.1,0,0.1l0,0c0,0,0,0.1,0,0.1l0,0l0,0.1l0,0l0,0.1l0,0.1l0,0l0,0.1l0,0.1c0,0,0,0.1,0,0.1l0,0.1l0,0.1c0,0,0,0.1,0,0.1
			l0,0c0,0,0,0.1,0,0.1l0,0l0,0.1l0,0c0,0,0,0.1,0.1,0.1l0,0c0,0,0,0.1,0.1,0.1l0,0c0,0,0,0.1,0.1,0.1l0,0c0,0,0,0.1,0.1,0.1l0,0
			c0,0,0,0.1,0.1,0.1l0,0c0,0,0,0.1,0.1,0.1l0,0c0,0,0.1,0.1,0.1,0.1l0,0c0,0,0.1,0.1,0.1,0.1l0,0c0,0,0.1,0.1,0.1,0.1l0,0l0,0l0,0
			c0,0,0.1,0.1,0.1,0.1l0,0c0,0,0.1,0.1,0.1,0.1l0,0c0,0,0.1,0.1,0.1,0.1l0,0c0,0,0.1,0.1,0.1,0.1l0,0c0,0,0.1,0.1,0.1,0.1l0,0
			c0,0,0.1,0.1,0.1,0.1l6.1,3.5c1.4,0.8,4.7,1.3,7.1-0.2l31.2-18c0.9-0.5,1.5-1.5,1.5-2.4V1057z"/>
		<path id="XMLID_87_" fill-rule="evenodd" clip-rule="evenodd" fill="#989AA1" d="M402,1058.9l26.9-15.5c3.1-1.8,6.5-2.1,9.7-0.3
			l8.2,4.7c1.9,1.1,1.6,3.7-0.2,4.7l-31.2,18c-2.5,1.4-5.8,0.9-7.1,0.2l-6.1-3.5C399.2,1065.5,399.2,1060.6,402,1058.9"/>
		<path id="XMLID_86_" fill-rule="evenodd" clip-rule="evenodd" fill="#B0292E" d="M316.5,984.8c0.9,0.5,1.8,1.1,2.5,1.7h3.4v6.4v0
			v0h0c0,2.9-1.9,5.9-5.8,8.1c-7.7,4.5-20.3,4.5-28.1,0c-3.9-2.2-5.8-5.2-5.9-8.1h0v0v0v-6.4h3.3c0.7-0.6,1.5-1.2,2.5-1.7
			C296.2,980.3,308.8,980.3,316.5,984.8"/>
		<path id="XMLID_85_" fill-rule="evenodd" clip-rule="evenodd" fill="#EE313B" d="M316.5,978.4c7.8,4.5,7.8,11.8,0.1,16.3
			c-7.7,4.5-20.3,4.5-28.1,0c-7.8-4.5-7.8-11.8-0.1-16.3C296.2,973.9,308.8,973.9,316.5,978.4"/>
		<path id="XMLID_84_" fill-rule="evenodd" clip-rule="evenodd" fill="#267EC2" d="M400.3,936.4c0.9,0.5,1.8,1.1,2.5,1.7h3.4v6.4v0
			v0h0c0,2.9-1.9,5.9-5.8,8.1c-7.7,4.5-20.3,4.5-28.1,0c-3.9-2.2-5.8-5.2-5.9-8.1h0v0v0v-6.4h3.3c0.7-0.6,1.5-1.2,2.5-1.7
			C380,931.9,392.6,931.9,400.3,936.4"/>
		<path id="XMLID_83_" fill-rule="evenodd" clip-rule="evenodd" fill="#28ABE2" d="M400.3,930c7.8,4.5,7.8,11.8,0.1,16.3
			c-7.7,4.5-20.3,4.5-28.1,0c-7.8-4.5-7.8-11.8-0.1-16.3C380,925.6,392.6,925.6,400.3,930"/>
		<path id="XMLID_270_" fill-rule="evenodd" clip-rule="evenodd" fill="#B0292E" d="M517,1103.6L517,1103.6l0,0.2
			C517,1103.7,517,1103.7,517,1103.6 M517,1108.8c0,0,0,0.1,0,0.1v0h0c0,0.7-0.4,1.3-1.1,1.7l-22.3,12.9c-1.8,1-4.2,0.7-5.1,0.1
			l-4.4-2.5c-0.9-0.5-1.5-1.6-1.6-2.7h0v0c0-0.2,0-0.4,0-0.6v-4.4h0c0,0.1,0,0.3,0.1,0.4l0,0c0,0,0,0.1,0,0.1l0,0c0,0,0,0.1,0,0.1
			l0,0c0,0,0,0.1,0,0.1l0,0c0,0,0,0,0,0.1l0,0l0,0l0,0l0,0l0,0l0,0l0,0.1l0,0c0,0,0,0,0,0.1l0,0l0,0.1c0,0,0,0,0,0.1l0,0
			c0,0,0,0,0,0.1l0,0l0,0.1l0,0c0,0,0,0,0,0.1l0,0c0,0,0,0,0,0.1l0,0c0,0,0,0,0,0.1l0,0c0,0,0,0,0,0.1l0,0c0,0,0,0,0,0.1l0,0
			c0,0,0,0,0.1,0.1l0,0c0,0,0,0,0.1,0.1l0,0c0,0,0,0,0.1,0.1l0,0c0,0,0,0,0.1,0.1l0,0l0,0l0,0c0,0,0,0,0.1,0.1l0,0c0,0,0,0,0.1,0.1
			l0,0c0,0,0.1,0,0.1,0.1l0,0c0,0,0.1,0,0.1,0.1l0,0c0,0,0.1,0,0.1,0.1l0,0c0,0,0.1,0,0.1,0.1l4.4,2.5c1,0.6,3.3,0.9,5.1-0.1
			l22.3-12.9c0.7-0.4,1.1-1.1,1.1-1.7V1108.8z"/>
		<path id="XMLID_80_" fill-rule="evenodd" clip-rule="evenodd" fill="#EE313B" d="M484,1110.2l19.3-11.1c2.2-1.3,4.7-1.5,6.9-0.2
			l5.9,3.4c1.4,0.8,1.1,2.6-0.2,3.4l-22.3,12.9c-1.8,1-4.2,0.7-5.1,0.1l-4.4-2.5C482,1114.9,482,1111.4,484,1110.2"/>
		<path id="XMLID_266_" fill-rule="evenodd" clip-rule="evenodd" fill="#D6A42E" d="M549.4,1084.9L549.4,1084.9l0,0.2
			C549.4,1085,549.4,1085,549.4,1084.9 M549.4,1090.1c0,0,0,0.1,0,0.1v0h0c0,0.7-0.4,1.3-1.1,1.7l-22.3,12.9c-1.8,1-4.2,0.7-5.1,0.1
			l-4.4-2.5c-0.9-0.5-1.5-1.6-1.6-2.7h0v0c0-0.2,0-0.4,0-0.6v-4.4h0c0,0.1,0,0.3,0.1,0.4l0,0c0,0,0,0.1,0,0.1l0,0c0,0,0,0.1,0,0.1
			l0,0c0,0,0,0.1,0,0.1l0,0c0,0,0,0,0,0.1l0,0l0,0l0,0l0,0l0,0l0,0l0,0.1l0,0c0,0,0,0,0,0.1l0,0l0,0.1c0,0,0,0,0,0.1l0,0
			c0,0,0,0,0,0.1l0,0l0,0.1l0,0c0,0,0,0,0,0.1l0,0c0,0,0,0,0,0.1l0,0c0,0,0,0,0,0.1l0,0c0,0,0,0,0,0.1l0,0c0,0,0,0,0,0.1l0,0
			c0,0,0,0,0.1,0.1l0,0c0,0,0,0,0.1,0.1l0,0c0,0,0,0,0.1,0.1l0,0c0,0,0,0,0.1,0.1l0,0l0,0l0,0c0,0,0,0,0.1,0.1l0,0c0,0,0,0,0.1,0.1
			l0,0c0,0,0.1,0,0.1,0.1l0,0c0,0,0.1,0,0.1,0.1l0,0c0,0,0.1,0,0.1,0.1l0,0c0,0,0.1,0,0.1,0.1l4.4,2.5c1,0.6,3.3,0.9,5.1-0.1
			l22.3-12.9c0.7-0.4,1.1-1.1,1.1-1.7V1090.1z"/>
		<path id="XMLID_77_" fill-rule="evenodd" clip-rule="evenodd" fill="#F9EE3C" d="M516.4,1091.6l19.3-11.1c2.2-1.3,4.7-1.5,6.9-0.2
			l5.9,3.4c1.4,0.8,1.1,2.6-0.2,3.4l-22.3,12.9c-1.8,1-4.2,0.7-5.1,0.1l-4.4-2.5C514.4,1096.3,514.4,1092.7,516.4,1091.6"/>
		<path id="XMLID_262_" fill-rule="evenodd" clip-rule="evenodd" fill="#378747" d="M581.7,1066.2L581.7,1066.2l0,0.2
			C581.7,1066.3,581.7,1066.3,581.7,1066.2 M581.8,1071.4c0,0,0,0.1,0,0.1v0c0,0.7-0.4,1.3-1.1,1.7l-22.3,12.9
			c-1.8,1-4.2,0.7-5.1,0.1l-4.4-2.5c-0.9-0.5-1.5-1.6-1.6-2.7h0v0c0-0.2,0-0.4,0-0.6v-4.4h0c0,0.1,0,0.3,0.1,0.4l0,0
			c0,0,0,0.1,0,0.1l0,0c0,0,0,0.1,0,0.1l0,0c0,0,0,0.1,0,0.1l0,0c0,0,0,0,0,0.1l0,0l0,0l0,0l0,0l0,0l0,0l0,0.1l0,0c0,0,0,0,0,0.1
			l0,0l0,0.1c0,0,0,0,0,0.1l0,0c0,0,0,0,0,0.1l0,0l0,0.1l0,0c0,0,0,0,0,0.1l0,0c0,0,0,0,0,0.1l0,0c0,0,0,0,0,0.1l0,0c0,0,0,0,0,0.1
			l0,0c0,0,0,0,0,0.1l0,0c0,0,0,0,0.1,0.1l0,0c0,0,0,0,0.1,0.1l0,0c0,0,0,0,0.1,0.1l0,0c0,0,0,0,0.1,0.1l0,0l0,0l0,0
			c0,0,0,0,0.1,0.1l0,0c0,0,0,0,0.1,0.1l0,0c0,0,0.1,0,0.1,0.1l0,0c0,0,0.1,0,0.1,0.1l0,0c0,0,0.1,0,0.1,0.1l0,0c0,0,0.1,0,0.1,0.1
			l4.4,2.5c1,0.6,3.3,0.9,5.1-0.1l22.3-12.9c0.7-0.4,1.1-1.1,1.1-1.7V1071.4z"/>
		<path id="XMLID_74_" fill-rule="evenodd" clip-rule="evenodd" fill="#31A655" d="M548.8,1072.9l19.3-11.1c2.2-1.3,4.7-1.5,6.9-0.2
			l5.9,3.4c1.4,0.8,1.1,2.6-0.2,3.4l-22.3,12.9c-1.8,1-4.2,0.7-5.1,0.1l-4.4-2.5C546.8,1077.6,546.7,1074,548.8,1072.9"/>
		<path id="XMLID_258_" fill-rule="evenodd" clip-rule="evenodd" fill="#267EC2" d="M614.1,1047.6L614.1,1047.6l0,0.2
			C614.1,1047.7,614.1,1047.6,614.1,1047.6 M614.1,1052.8c0,0,0,0.1,0,0.1v0h0c0,0.7-0.4,1.3-1.1,1.7l-22.3,12.9
			c-1.8,1-4.2,0.7-5.1,0.1l-4.4-2.5c-0.9-0.5-1.5-1.6-1.6-2.7h0v0c0-0.2,0-0.4,0-0.6v-4.4h0c0,0.1,0,0.3,0.1,0.4l0,0
			c0,0,0,0.1,0,0.1l0,0c0,0,0,0.1,0,0.1l0,0c0,0,0,0.1,0,0.1l0,0c0,0,0,0,0,0.1l0,0l0,0l0,0l0,0l0,0l0,0l0,0.1l0,0c0,0,0,0,0,0.1
			l0,0l0,0.1c0,0,0,0,0,0.1l0,0c0,0,0,0,0,0.1l0,0l0,0.1l0,0c0,0,0,0,0,0.1l0,0c0,0,0,0,0,0.1l0,0c0,0,0,0,0,0.1l0,0c0,0,0,0,0,0.1
			l0,0c0,0,0,0,0,0.1l0,0c0,0,0,0,0.1,0.1l0,0c0,0,0,0,0.1,0.1l0,0c0,0,0,0,0.1,0.1l0,0c0,0,0,0,0.1,0.1l0,0l0,0l0,0
			c0,0,0,0,0.1,0.1l0,0c0,0,0,0,0.1,0.1l0,0c0,0,0.1,0,0.1,0.1l0,0c0,0,0.1,0,0.1,0.1l0,0c0,0,0.1,0,0.1,0.1l0,0c0,0,0.1,0,0.1,0.1
			l4.4,2.5c1,0.6,3.3,0.9,5.1-0.1l22.3-12.9c0.7-0.4,1.1-1.1,1.1-1.7V1052.8z"/>
		<path id="XMLID_71_" fill-rule="evenodd" clip-rule="evenodd" fill="#28ABE2" d="M581.1,1054.2l19.3-11.1c2.2-1.3,4.7-1.5,6.9-0.2
			l5.9,3.4c1.4,0.8,1.1,2.6-0.2,3.4l-22.3,12.9c-1.8,1-4.2,0.7-5.1,0.1l-4.4-2.5C579.1,1058.9,579.1,1055.4,581.1,1054.2"/>
		<path id="XMLID_70_" fill-rule="evenodd" clip-rule="evenodd" fill="#3C3C3F" d="M355.3,921.1l7.9,4.6c3.4,2,2.8,6.5-0.4,8.4
			l-55.6,32.1c-4.4,2.6-10.3,1.7-12.7,0.3l-8.8-5.1L355.3,921.1z"/>
		<path id="XMLID_253_" fill-rule="evenodd" clip-rule="evenodd" fill="#7D7F87" d="M618.7,1172c-16.6-0.8-32.9-4.9-45.6-12.3
			c-14.4-8.3-21.6-19.2-21.7-30h0v-0.1v-0.1c0-2.9,0-5.6,0-5.8c0,0,0,0,0,0c0.4,10.4,7.3,20.8,20.8,28.8c0.3,0.2,0.6,0.4,0.9,0.5
			c12.8,7.4,29,11.5,45.6,12.3V1172z M698.5,1129.6L698.5,1129.6v0.1h0c0,10.9-7.1,21.7-21.4,30c-12.8,7.4-29.2,11.5-45.9,12.3v-6.6
			c16.8-0.8,33.2-4.9,45.9-12.3c14.1-8.2,21.3-19,21.4-29.7c0,0,0,0,0,0C698.5,1123.6,698.5,1126.7,698.5,1129.6z"/>
		<path id="XMLID_248_" fill-rule="evenodd" clip-rule="evenodd" fill="#989AA1" d="M551.6,1120c1.1-9.9,8.2-19.6,21.2-27.2
			c12.8-7.4,29.2-11.5,45.9-12.3v18.5c-8.6,0.7-16.8,3-23.4,6.8c-6.8,4-10.8,9-11.8,14.1H551.6z M618.7,1165.4
			c-16.6-0.8-32.9-4.9-45.6-12.3c-14.4-8.3-21.7-19.2-21.7-30.1h31.8c0,6.2,4.1,12.4,12.3,17.1c6.6,3.8,14.7,6,23.2,6.8V1165.4z
			 M698.5,1123c0.1,10.9-7.1,21.8-21.4,30.1c-12.8,7.4-29.2,11.5-45.9,12.3v-18.5c8.6-0.7,16.8-3,23.4-6.8
			c8.1-4.7,12.2-10.9,12.1-17.1H698.5z M676.8,1092.9c13.1,7.6,20.3,17.3,21.5,27.2h-31.9c-1.1-5.2-5.1-10.2-12-14.1
			c-6.6-3.8-14.7-6-23.2-6.8v-18.5C647.8,1081.4,664,1085.5,676.8,1092.9z"/>
		<path id="XMLID_243_" fill-rule="evenodd" clip-rule="evenodd" fill="#7D7F87" d="M585,1120c1.9-3.7,5.4-7.2,10.5-10.1
			c6.6-3.8,14.7-6,23.2-6.8v-4.1c-8.6,0.7-16.8,3-23.4,6.8c-6.8,4-10.8,9-11.8,14.1H585z M583.2,1123c0,0.6,0.1,1.2,0.2,1.9
			c0.1-0.6,0.2-1.2,0.4-1.9H583.2z M666.4,1120c-1.1-5.2-5.1-10.2-12-14.1c-6.6-3.8-14.7-6-23.2-6.8v4c8.6,0.7,16.8,3,23.4,6.8
			c5,2.9,8.5,6.4,10.4,10.1H666.4z M666.5,1124.7c0.1-0.6,0.1-1.1,0.2-1.7h-0.6C666.3,1123.5,666.4,1124.1,666.5,1124.7z"/>
		<path id="XMLID_59_" fill-rule="evenodd" clip-rule="evenodd" fill="#7D7F87" d="M655.1,1126L655.1,1126L655.1,1126L655.1,1126
			c0,4.5-2.9,9-8.8,12.4c-11.7,6.8-30.8,6.8-42.6,0c-5.9-3.4-8.9-7.9-8.9-12.3h0v0v0c0-1.2,0-2.3,0-2.4c0,0,0,0,0,0
			c0.2,4.3,3,8.5,8.5,11.8c0.1,0.1,0.2,0.1,0.4,0.2c11.8,6.8,30.9,6.8,42.6,0c5.8-3.4,8.7-7.8,8.8-12.2c0,0,0,0,0,0
			C655.1,1123.6,655.1,1124.8,655.1,1126"/>
		<path id="XMLID_58_" fill-rule="evenodd" clip-rule="evenodd" fill="#989AA1" d="M646.2,1111c11.8,6.8,11.9,17.9,0.1,24.7
			c-11.7,6.8-30.8,6.8-42.6,0c-11.8-6.8-11.9-17.9-0.1-24.7C615.3,1104.2,634.4,1104.2,646.2,1111"/>
		<rect id="XMLID_57_" x="551.6" y="1120" fill-rule="evenodd" clip-rule="evenodd" fill="#7D7F87" width="31.6" height="3"/>
		<rect id="XMLID_56_" x="666.4" y="1120" fill-rule="evenodd" clip-rule="evenodd" fill="#7D7F87" width="31.9" height="3"/>
		<path id="XMLID_55_" fill-rule="evenodd" clip-rule="evenodd" fill="#7D7F87" d="M674.5,1190.9c0.7,0.4,1.4,0.9,1.9,1.4h2.7v5v0v0
			h0c0,2.3-1.5,4.6-4.5,6.4c-6.1,3.5-15.9,3.5-22,0c-3-1.8-4.6-4.1-4.6-6.4h0v0v0v-5h2.6c0.6-0.5,1.2-0.9,1.9-1.4
			C658.6,1187.4,668.4,1187.4,674.5,1190.9"/>
		<path id="XMLID_54_" fill-rule="evenodd" clip-rule="evenodd" fill="#989AA1" d="M674.5,1185.9c6.1,3.5,6.1,9.2,0.1,12.7
			c-6.1,3.5-15.9,3.5-22,0c-6.1-3.5-6.1-9.2-0.1-12.7C658.6,1182.4,668.4,1182.4,674.5,1185.9"/>
		<path id="XMLID_53_" fill-rule="evenodd" clip-rule="evenodd" fill="#7D7F87" d="M701.7,1174.9c0.7,0.4,1.4,0.9,1.9,1.4h2.7v5v0v0
			h0c0,2.3-1.5,4.6-4.5,6.4c-6.1,3.5-15.9,3.5-22,0c-3-1.8-4.6-4.1-4.6-6.4h0v0v0v-5h2.6c0.6-0.5,1.2-0.9,1.9-1.4
			C685.7,1171.4,695.6,1171.4,701.7,1174.9"/>
		<path id="XMLID_52_" fill-rule="evenodd" clip-rule="evenodd" fill="#989AA1" d="M701.7,1169.9c6.1,3.5,6.1,9.2,0.1,12.7
			c-6.1,3.5-15.9,3.5-22,0c-6.1-3.5-6.1-9.2-0.1-12.7C685.7,1166.4,695.6,1166.4,701.7,1169.9"/>
		<path id="XMLID_51_" fill-rule="evenodd" clip-rule="evenodd" fill="#7D7F87" d="M728.9,1158.9c0.7,0.4,1.4,0.9,1.9,1.4h2.7v5v0v0
			h0c0,2.3-1.5,4.6-4.5,6.4c-6.1,3.5-15.9,3.5-22,0c-3-1.8-4.6-4.1-4.6-6.4h0v0v0v-5h2.6c0.6-0.5,1.2-0.9,1.9-1.4
			C712.9,1155.4,722.8,1155.4,728.9,1158.9"/>
		<path id="XMLID_50_" fill-rule="evenodd" clip-rule="evenodd" fill="#989AA1" d="M728.9,1153.9c6.1,3.5,6.1,9.2,0.1,12.7
			c-6.1,3.5-15.9,3.5-22,0c-6.1-3.5-6.1-9.2-0.1-12.7C712.9,1150.4,722.8,1150.4,728.9,1153.9"/>
		<path id="XMLID_49_" fill-rule="evenodd" clip-rule="evenodd" fill="#7D7F87" d="M756.1,1142.9c0.7,0.4,1.4,0.9,1.9,1.4h2.7v5v0v0
			h0c0,2.3-1.5,4.6-4.5,6.4c-6.1,3.5-15.9,3.5-22,0c-3-1.8-4.6-4.1-4.6-6.4h0v0v0v-5h2.6c0.6-0.5,1.2-0.9,1.9-1.4
			C740.1,1139.4,750,1139.4,756.1,1142.9"/>
		<path id="XMLID_48_" fill-rule="evenodd" clip-rule="evenodd" fill="#989AA1" d="M756.1,1137.9c6.1,3.5,6.1,9.2,0.1,12.7
			c-6.1,3.5-15.9,3.5-22,0c-6.1-3.5-6.1-9.2-0.1-12.7C740.1,1134.4,750,1134.4,756.1,1137.9"/>
		<path id="XMLID_47_" fill-rule="evenodd" clip-rule="evenodd" fill="#7D7F87" d="M707.9,1211.8c0.7,0.4,1.4,0.9,1.9,1.4h2.7v5v0v0
			h0c0,2.3-1.5,4.6-4.5,6.4c-6.1,3.5-15.9,3.5-22,0c-3-1.8-4.6-4.1-4.6-6.4h0v0v0v-5h2.6c0.6-0.5,1.2-0.9,1.9-1.4
			C691.9,1208.3,701.8,1208.3,707.9,1211.8"/>
		<path id="XMLID_46_" fill-rule="evenodd" clip-rule="evenodd" fill="#989AA1" d="M707.9,1206.8c6.1,3.5,6.1,9.2,0.1,12.7
			c-6.1,3.5-15.9,3.5-22,0c-6.1-3.5-6.1-9.2-0.1-12.7C691.9,1203.3,701.8,1203.3,707.9,1206.8"/>
		<path id="XMLID_45_" fill-rule="evenodd" clip-rule="evenodd" fill="#7D7F87" d="M735.1,1195.8c0.7,0.4,1.4,0.9,1.9,1.4h2.7v5v0v0
			h0c0,2.3-1.5,4.6-4.5,6.4c-6.1,3.5-15.9,3.5-22,0c-3-1.8-4.6-4.1-4.6-6.4h0v0v0v-5h2.6c0.6-0.5,1.2-0.9,1.9-1.4
			C719.1,1192.3,729,1192.3,735.1,1195.8"/>
		<path id="XMLID_44_" fill-rule="evenodd" clip-rule="evenodd" fill="#989AA1" d="M735.1,1190.8c6.1,3.5,6.1,9.2,0.1,12.7
			c-6.1,3.5-15.9,3.5-22,0c-6.1-3.5-6.1-9.2-0.1-12.7C719.1,1187.3,729,1187.3,735.1,1190.8"/>
		<path id="XMLID_43_" fill-rule="evenodd" clip-rule="evenodd" fill="#7D7F87" d="M762.2,1179.8c0.7,0.4,1.4,0.9,1.9,1.4h2.7v5v0v0
			h0c0,2.3-1.5,4.6-4.5,6.4c-6.1,3.5-15.9,3.5-22,0c-3-1.8-4.6-4.1-4.6-6.4h0v0v0v-5h2.6c0.6-0.5,1.2-0.9,1.9-1.4
			C746.3,1176.3,756.1,1176.3,762.2,1179.8"/>
		<path id="XMLID_42_" fill-rule="evenodd" clip-rule="evenodd" fill="#989AA1" d="M762.2,1174.8c6.1,3.5,6.1,9.2,0.1,12.7
			c-6.1,3.5-15.9,3.5-22,0c-6.1-3.5-6.1-9.2-0.1-12.7S756.1,1171.3,762.2,1174.8"/>
		<path id="XMLID_41_" fill-rule="evenodd" clip-rule="evenodd" fill="#7D7F87" d="M789.4,1163.8c0.7,0.4,1.4,0.9,1.9,1.4h2.7v5v0v0
			h0c0,2.3-1.5,4.6-4.5,6.4c-6.1,3.5-15.9,3.5-22,0c-3-1.8-4.6-4.1-4.6-6.4h0v0v0v-5h2.6c0.6-0.5,1.2-0.9,1.9-1.4
			C773.5,1160.3,783.3,1160.3,789.4,1163.8"/>
		<path id="XMLID_40_" fill-rule="evenodd" clip-rule="evenodd" fill="#989AA1" d="M789.4,1158.8c6.1,3.5,6.1,9.2,0.1,12.7
			c-6.1,3.5-15.9,3.5-22,0c-6.1-3.5-6.1-9.2-0.1-12.7C773.5,1155.3,783.3,1155.3,789.4,1158.8"/>
		<path id="XMLID_219_" fill-rule="evenodd" clip-rule="evenodd" fill="#7D7F87" d="M502,1088L502,1088l0,0.2
			C502,1088.1,502,1088.1,502,1088 M463.8,1065.9L463.8,1065.9l0,0.2C463.8,1066,463.8,1066,463.8,1065.9z M502,1093.5
			c0,0.1,0,0.1,0,0.2v0h0c0,0.7-0.4,1.4-1.1,1.8l-23.6,13.6c-1.9,1.1-4.4,0.7-5.4,0.1l-1.8-1.1l0,0l-41.1-23.7
			c-1-0.6-1.6-1.7-1.6-2.8h0v0c0-0.2,0-0.4,0-0.6v-4.7h0c0,0.2,0,0.3,0.1,0.5l0,0c0,0,0,0.1,0,0.1l0,0c0,0,0,0.1,0,0.1l0,0
			c0,0,0,0.1,0,0.1l0,0c0,0,0,0.1,0,0.1l0,0l0,0.1l0,0l0,0l0,0.1l0,0l0,0.1l0,0c0,0,0,0,0,0.1l0,0l0,0.1c0,0,0,0,0,0.1l0,0
			c0,0,0,0,0,0.1l0,0l0,0.1l0,0c0,0,0,0,0,0.1l0,0c0,0,0,0,0,0.1l0,0c0,0,0,0,0,0.1l0,0c0,0,0,0,0.1,0.1l0,0c0,0,0,0,0.1,0.1l0,0
			c0,0,0,0,0.1,0.1l0,0c0,0,0,0,0.1,0.1l0,0c0,0,0,0,0.1,0.1l0,0c0,0,0,0,0.1,0.1l0,0l0,0l0,0c0,0,0,0,0.1,0.1l0,0
			c0,0,0.1,0,0.1,0.1l0,0c0,0,0.1,0,0.1,0.1l0,0c0,0,0.1,0,0.1,0.1l0,0c0,0,0.1,0,0.1,0.1l0,0c0,0,0.1,0,0.1,0.1l36.6,21.1v-1.9h0
			c0,0.2,0,0.3,0.1,0.5l0,0c0,0,0,0.1,0,0.1l0,0c0,0,0,0.1,0,0.1l0,0c0,0,0,0.1,0,0.1l0,0c0,0,0,0.1,0,0.1l0,0l0,0.1l0,0l0,0l0,0.1
			l0,0l0,0.1l0,0c0,0,0,0,0,0.1l0,0l0,0.1c0,0,0,0,0,0.1l0,0c0,0,0,0,0,0.1l0,0l0,0.1l0,0c0,0,0,0,0,0.1l0,0c0,0,0,0,0,0.1l0,0
			c0,0,0,0,0,0.1l0,0c0,0,0,0,0.1,0.1l0,0c0,0,0,0,0.1,0.1l0,0c0,0,0,0,0.1,0.1l0,0c0,0,0,0,0.1,0.1l0,0c0,0,0,0,0.1,0.1l0,0
			c0,0,0,0,0.1,0.1l0,0l0,0l0,0c0,0,0,0,0.1,0.1l0,0c0,0,0.1,0,0.1,0.1l0,0c0,0,0.1,0,0.1,0.1l0,0c0,0,0.1,0,0.1,0.1l0,0
			c0,0,0.1,0,0.1,0.1l0,0c0,0,0.1,0,0.1,0.1l2.8,1.6c1,0.6,3.5,1,5.4-0.1l-12.8-34.7c-0.3-0.8,1.1-1.1,1.1-1.8v5.2
			c0,0.1,0,0.1,0,0.2v0c0,0.7-1.4,1.1-1.1,1.8l11.5,31.1c1,0.1,2.2-0.1,3.2-0.7l23.6-13.6c0.7-0.4,1.1-1.1,1.1-1.8V1093.5z"/>
		<path id="XMLID_36_" fill-rule="evenodd" clip-rule="evenodd" fill="#989AA1" d="M428.9,1072.9l20.4-11.7c2.4-1.4,4.9-1.6,7.3-0.2
			l19.1,11l0,0l6.2,3.6l0,0l12.9,7.5l0,0l6.2,3.6c1.5,0.8,1.2,2.8-0.2,3.6l-23.6,13.6c-1.9,1.1-4.4,0.7-5.4,0.1l-2.3-1.3l0,0
			l-2.3-1.3l-14.5-8.4l0,0l-4.6-2.7l-19.1-11C426.8,1077.9,426.8,1074.2,428.9,1072.9"/>
		<path id="XMLID_214_" fill-rule="evenodd" clip-rule="evenodd" fill="#7D7F87" d="M589.5,1037.5L589.5,1037.5l0,0.2
			C589.5,1037.6,589.5,1037.6,589.5,1037.5 M551.2,1015.4L551.2,1015.4l0,0.2C551.2,1015.5,551.2,1015.5,551.2,1015.4z M589.5,1043
			c0,0.1,0,0.1,0,0.2v0h0c0,0.7-0.4,1.4-1.1,1.8l-23.6,13.6c-1.9,1.1-4.4,0.7-5.4,0.1l-1.8-1.1l0,0l-41.1-23.7
			c-1-0.6-1.6-1.7-1.6-2.8h0v0c0-0.2,0-0.4,0-0.6v-4.7h0c0,0.2,0,0.3,0.1,0.5l0,0c0,0,0,0.1,0,0.1l0,0c0,0,0,0.1,0,0.1l0,0
			c0,0,0,0.1,0,0.1l0,0c0,0,0,0.1,0,0.1l0,0l0,0.1l0,0l0,0l0,0.1l0,0l0,0.1l0,0c0,0,0,0,0,0.1l0,0l0,0.1c0,0,0,0,0,0.1l0,0
			c0,0,0,0,0,0.1l0,0l0,0.1l0,0c0,0,0,0,0,0.1l0,0c0,0,0,0,0,0.1l0,0c0,0,0,0,0,0.1l0,0c0,0,0,0,0.1,0.1l0,0c0,0,0,0,0.1,0.1l0,0
			c0,0,0,0,0.1,0.1l0,0c0,0,0,0,0.1,0.1l0,0c0,0,0,0,0.1,0.1l0,0c0,0,0,0,0.1,0.1l0,0l0,0l0,0c0,0,0,0,0.1,0.1l0,0
			c0,0,0.1,0,0.1,0.1l0,0c0,0,0.1,0,0.1,0.1l0,0c0,0,0.1,0,0.1,0.1l0,0c0,0,0.1,0,0.1,0.1l0,0c0,0,0.1,0,0.1,0.1l36.6,21.1v-1.9h0
			c0,0.2,0,0.3,0.1,0.5l0,0c0,0,0,0.1,0,0.1l0,0c0,0,0,0.1,0,0.1l0,0c0,0,0,0.1,0,0.1l0,0c0,0,0,0.1,0,0.1l0,0l0,0.1l0,0l0,0l0,0.1
			l0,0l0,0.1l0,0c0,0,0,0,0,0.1l0,0l0,0.1c0,0,0,0,0,0.1l0,0c0,0,0,0,0,0.1l0,0l0,0.1l0,0c0,0,0,0,0,0.1l0,0c0,0,0,0,0,0.1l0,0
			c0,0,0,0,0,0.1l0,0c0,0,0,0,0.1,0.1l0,0c0,0,0,0,0.1,0.1l0,0c0,0,0,0,0.1,0.1l0,0c0,0,0,0,0.1,0.1l0,0c0,0,0,0,0.1,0.1l0,0
			c0,0,0,0,0.1,0.1l0,0l0,0l0,0c0,0,0,0,0.1,0.1l0,0c0,0,0.1,0,0.1,0.1l0,0c0,0,0.1,0,0.1,0.1l0,0c0,0,0.1,0,0.1,0.1l0,0
			c0,0,0.1,0,0.1,0.1l0,0c0,0,0.1,0,0.1,0.1l2.8,1.6c1,0.6,3.5,1,5.4-0.1l-12.8-34.7c-0.3-0.8,1.1-1.1,1.1-1.8v5.2
			c0,0.1,0,0.1,0,0.2v0c0,0.7-1.4,1.1-1.1,1.8l11.5,31.1c1,0.1,2.2-0.1,3.2-0.7l23.6-13.6c0.7-0.4,1.1-1.1,1.1-1.8V1043z"/>
		<path id="XMLID_32_" fill-rule="evenodd" clip-rule="evenodd" fill="#989AA1" d="M516.4,1022.4l20.4-11.7c2.4-1.4,4.9-1.6,7.3-0.2
			l19.1,11l0,0l6.2,3.6l0,0l12.9,7.5l0,0l6.2,3.6c1.5,0.8,1.2,2.8-0.2,3.6l-23.6,13.6c-1.9,1.1-4.4,0.7-5.4,0.1l-2.3-1.3l0,0
			l-2.3-1.3l-14.5-8.4l0,0l-4.6-2.7l-19.1-11C514.3,1027.4,514.2,1023.7,516.4,1022.4"/>
		<path id="XMLID_210_" fill-rule="evenodd" clip-rule="evenodd" fill="#7D7F87" d="M512.5,1042L512.5,1042l0,0.2
			C512.5,1042.1,512.5,1042.1,512.5,1042 M512.5,1047.2c0,0,0,0.1,0,0.1v0h0c0,0.7-0.4,1.3-1.1,1.7l-22.3,12.9
			c-1.8,1-4.1,0.7-5.1,0.1l-4.4-2.5c-0.9-0.5-1.5-1.6-1.6-2.7h0v0c0-0.2,0-0.4,0-0.6v-4.4h0c0,0.1,0,0.3,0.1,0.4l0,0
			c0,0,0,0.1,0,0.1l0,0c0,0,0,0.1,0,0.1l0,0c0,0,0,0.1,0,0.1l0,0c0,0,0,0,0,0.1l0,0l0,0l0,0l0,0l0,0l0,0l0,0.1l0,0c0,0,0,0,0,0.1
			l0,0l0,0.1c0,0,0,0,0,0.1l0,0c0,0,0,0,0,0.1l0,0l0,0.1l0,0c0,0,0,0,0,0.1l0,0c0,0,0,0,0,0.1l0,0c0,0,0,0,0,0.1l0,0c0,0,0,0,0,0.1
			l0,0c0,0,0,0,0,0.1l0,0c0,0,0,0,0.1,0.1l0,0c0,0,0,0,0.1,0.1l0,0c0,0,0,0,0.1,0.1l0,0c0,0,0,0,0.1,0.1l0,0l0,0l0,0
			c0,0,0,0,0.1,0.1l0,0c0,0,0,0,0.1,0.1l0,0c0,0,0.1,0,0.1,0.1l0,0c0,0,0.1,0,0.1,0.1l0,0c0,0,0.1,0,0.1,0.1l0,0c0,0,0.1,0,0.1,0.1
			l4.4,2.5c1,0.6,3.3,0.9,5.1-0.1l22.3-12.9c0.7-0.4,1-1.1,1.1-1.7V1047.2z"/>
		<path id="XMLID_29_" fill-rule="evenodd" clip-rule="evenodd" fill="#989AA1" d="M479.6,1048.6l19.2-11.1c2.2-1.3,4.7-1.5,6.9-0.2
			l5.8,3.4c1.4,0.8,1.1,2.6-0.2,3.4l-22.3,12.9c-1.8,1-4.1,0.7-5.1,0.1l-4.4-2.5C477.6,1053.3,477.6,1049.8,479.6,1048.6"/>
		<path id="XMLID_206_" fill-rule="evenodd" clip-rule="evenodd" fill="#7D7F87" d="M535.9,1055.5L535.9,1055.5l0,0.2
			C535.9,1055.6,535.9,1055.6,535.9,1055.5 M535.9,1060.7c0,0,0,0.1,0,0.1v0h0c0,0.7-0.4,1.3-1.1,1.7l-22.3,12.9
			c-1.8,1-4.1,0.7-5.1,0.1l-4.4-2.5c-0.9-0.5-1.5-1.6-1.6-2.7h0v0c0-0.2,0-0.4,0-0.6v-4.4h0c0,0.1,0,0.3,0.1,0.4l0,0
			c0,0,0,0.1,0,0.1l0,0c0,0,0,0.1,0,0.1l0,0c0,0,0,0.1,0,0.1l0,0c0,0,0,0,0,0.1l0,0l0,0l0,0l0,0l0,0l0,0l0,0.1l0,0c0,0,0,0,0,0.1
			l0,0l0,0.1c0,0,0,0,0,0.1l0,0c0,0,0,0,0,0.1l0,0l0,0.1l0,0c0,0,0,0,0,0.1l0,0c0,0,0,0,0,0.1l0,0c0,0,0,0,0,0.1l0,0c0,0,0,0,0,0.1
			l0,0c0,0,0,0,0,0.1l0,0c0,0,0,0,0.1,0.1l0,0c0,0,0,0,0.1,0.1l0,0c0,0,0,0,0.1,0.1l0,0c0,0,0,0,0.1,0.1l0,0l0,0l0,0
			c0,0,0,0,0.1,0.1l0,0c0,0,0,0,0.1,0.1l0,0c0,0,0.1,0,0.1,0.1l0,0c0,0,0.1,0,0.1,0.1l0,0c0,0,0.1,0,0.1,0.1l0,0c0,0,0.1,0,0.1,0.1
			l4.4,2.5c1,0.6,3.3,0.9,5.1-0.1l22.3-12.9c0.7-0.4,1-1.1,1.1-1.7V1060.7z"/>
		<path id="XMLID_26_" fill-rule="evenodd" clip-rule="evenodd" fill="#989AA1" d="M503,1062.1l19.2-11.1c2.2-1.3,4.7-1.5,6.9-0.2
			l5.8,3.4c1.4,0.8,1.1,2.6-0.2,3.4l-22.3,12.9c-1.8,1-4.1,0.7-5.1,0.1l-4.4-2.5C501,1066.8,500.9,1063.3,503,1062.1"/>
	</g>
	<g id="XMLID_1_">
		<path id="XMLID_7_" fill-rule="evenodd" clip-rule="evenodd" fill="#745630" d="M912.6,1155.9h31c7.7,0,15.4-2,22.1-5.7l98.7-54.5
			c5-2.8,4.9-10-0.1-12.6l-83.6-44.5L912.6,1155.9z"/>
		<path id="XMLID_5_" fill-rule="evenodd" clip-rule="evenodd" fill="#CACCCF" d="M1038.1,1051.5l-266.7-155
			c-8.1-4.7-21.2-4.7-29.3,0L630.4,961c-8.1,4.7-8.2,12.3-0.1,17L897,1133c8.1,4.7,21.2,4.7,29.3,0l111.7-64.5
			C1046.1,1063.8,1046.2,1056.2,1038.1,1051.5"/>
		<path id="XMLID_4_" fill-rule="evenodd" clip-rule="evenodd" fill="#A7AAAC" d="M950.2,1082c-7,4-7,10.6-0.1,14.7
			c7,4,18.3,4,25.3,0c7-4,7-10.6,0.1-14.7C968.5,1078,957.2,1078,950.2,1082"/>
		<polygon id="XMLID_3_" fill-rule="evenodd" clip-rule="evenodd" fill="#3C3C3F" points="651.8,980.6 877.5,1111.8 1001.6,1040.1 
			775.9,909 		"/>
		<path id="XMLID_2_" fill-rule="evenodd" clip-rule="evenodd" fill="#A7AAAC" d="M1044.1,1060c0,3.1-2,6.2-6.1,8.5L926.3,1133
			c-1,0.6-2.1,1.1-3.2,1.5l-0.5,0.2c-0.9,0.3-1.9,0.6-2.9,0.9l-0.6,0.1c-1.1,0.2-2.2,0.4-3.3,0.6l-0.5,0.1c-1.1,0.1-2.3,0.2-3.4,0.2
			l-0.6,0c-1.2,0-2.3-0.1-3.5-0.2l-0.6-0.1c-0.9-0.1-1.7-0.3-2.5-0.4c-0.7-0.1-1.4-0.3-2.1-0.5c-0.5-0.2-1.1-0.3-1.6-0.5
			c-1.4-0.5-2.8-1.1-4.1-1.8L630.3,978c-0.5-0.3-0.8-0.6-1.3-0.9c-0.5-0.4-1-0.7-1.5-1.1c-0.6-0.6-1.2-1.2-1.6-1.8l-0.2-0.3
			c-0.4-0.6-0.8-1.3-1-1.9l-0.1-0.2c-0.2-0.7-0.4-1.4-0.4-2.1l0.1,19.4l0,0.2l0.1,1.2l0.2,0.8l0.1,0.2l0.1,0.2l0.6,1.2l0.4,0.6
			l0.2,0.3l0.2,0.3c0.4,0.5,0.8,0.9,1.3,1.4l0.1,0.1c0.4,0.4,1,0.7,1.5,1.1l1,0.8l0.3,0.2l266.7,155c1.2,0.7,2.6,1.3,4.1,1.8
			l0.5,0.2l1.1,0.3c0.7,0.2,1.4,0.4,2.1,0.5l0.7,0.2c0.6,0.1,1.2,0.2,1.8,0.2l0.6,0.1l0.3,0c0.8,0.1,1.5,0.1,2.3,0.2l0.9,0h0.5
			l0.6,0c0.7,0,1.4-0.1,2-0.1l0.8-0.1l0.5-0.1l0.7-0.1c0.7-0.1,1.4-0.2,2.1-0.4l0.5-0.1l0.6-0.1l1-0.3c0.6-0.2,1.2-0.4,1.8-0.6
			l0.5-0.2l0.2-0.1c1.1-0.4,2.1-0.9,3-1.4l111.7-64.5c4.1-2.4,6.1-5.4,6.1-8.5L1044.1,1060z"/>
	</g>
	<g id="XMLID_186_">
		<g id="XMLID_182_">
			<path id="XMLID_139_" fill="#745630" d="M583.5,581.8l251,2.3c32,0.3,62.7-12.1,85.6-34.5l0,0c19.3-18.9,6-51.7-21-51.9
				L610.5,495L583.5,581.8z"/>
			<g id="XMLID_11_">
				<g id="XMLID_9_">
					<g id="XMLID_141_" enable-background="new    ">
						<g id="XMLID_187_">
							<path id="XMLID_188_" fill="#C0C2C4" d="M707.3,522.8c-4.8,7.4-9.6,14.7-14.4,22.1c-4.9,7.5-12.6,14.6-23.2,20.6
								c-39.3,22.4-102.9,21.8-142.1-1.3c-10.8-6.3-18.6-13.7-23.4-21.6c0,0,0,0,0,0c-4.6-7.5-9.2-14.9-13.8-22.4
								c5.6,9,14.5,17.5,26.9,24.8c45,26.5,118.1,27.2,163.3,1.5C692.8,539.6,701.7,531.5,707.3,522.8z"/>
						</g>
						<g id="XMLID_185_">
							<path id="XMLID_218_" fill="#9C0A0E" d="M717.8,186.3l-3.2,313.5c-0.2,17-11.5,33.9-34,46.7c-33.5,19.1-82.4,23.6-123.7,13.9
								c-14.4-3.4-27.9-8.5-39.6-15.4c-22.7-13.4-33.9-30.7-33.7-47.9l3.1-313.4c-0.2,17.2,11.1,34.5,33.7,47.8
								c11.6,6.8,25,11.9,39.3,15.3c41.4,9.8,90.4,5.3,124.1-13.8C706.3,220.2,717.6,203.4,717.8,186.3z"/>
						</g>
						<g id="XMLID_183_">
							<path id="XMLID_184_" fill="#DD1A22" d="M697.2,140.8c4.6,7.5,9.2,15,13.8,22.4c14.7,23.8,5.6,51.2-27.2,69.8
								c-45.2,25.7-118.3,25.1-163.3-1.5c-32.9-19.4-41.7-47.3-26.3-70.9c0,0,0,0,0,0c4.8-7.4,9.6-14.7,14.4-22.1
								c-13.4,20.6-5.7,44.8,22.9,61.7c39.2,23.1,102.8,23.7,142.1,1.3C702,185.3,709.9,161.5,697.2,140.8z"/>
						</g>
						<g id="XMLID_180_">
							<path id="XMLID_181_" fill="#C0C2C4" d="M673.8,119.2c39.2,23.1,39,59.9-0.3,82.3c-39.3,22.4-102.9,21.8-142.1-1.3
								c-39.2-23.1-39-59.9,0.3-82.3S634.6,96.1,673.8,119.2z"/>
						</g>
					</g>
				</g>
				<g id="XMLID_10_">
					<path id="XMLID_193_" fill="#C0C2C4" d="M701.7,170.3c-3.4,11.5-12.7,22.5-28.1,31.3c-39.3,22.4-102.9,21.8-142.1-1.3
						c-15.5-9.1-24.8-20.4-28-32.1c-4.9-17.9,4.6-36.7,28.3-50.2c39.3-22.4,103-21.8,142.1,1.3C697.6,133.3,706.9,152.4,701.7,170.3
						z"/>
				</g>
				<g id="XMLID_13_">
					<path id="XMLID_191_" fill="#E0E1E2" d="M693.9,166.3c-3.1,10.6-11.7,20.7-25.9,28.8c-36.2,20.6-94.8,20.1-130.9-1.2
						c-14.3-8.4-22.9-18.8-25.8-29.6c3.1-10.6,11.7-20.7,25.9-28.8c36.2-20.6,94.8-20.1,130.9,1.2
						C682.3,145.1,691,155.6,693.9,166.3z"/>
				</g>
				<g id="XMLID_140_">
					<path id="XMLID_209_" fill="#C1C2C4" d="M607.5,154c-0.3,0-0.7-0.1-1-0.1c-3.5-0.1-6.2,0.5-7.6,1.3c-1.4,0.8-2.5,2.3-2.4,4.4
						c0,0.2,0,0.4,0.1,0.6c2.5-0.5,4.8-1.3,6.7-2.4C605.2,156.7,606.6,155.4,607.5,154 M599.7,138.2c-10.3-6.1-25.4-7.2-33.7-2.4
						c-8.3,4.7-6.7,13.5,3.6,19.6c5.2,3.1,11.6,4.9,17.8,5.3c-0.2-2.8,1.5-5.6,6.4-8.4c4.9-2.8,9.9-3.7,14.7-3.6
						C607.9,145.1,604.9,141.3,599.7,138.2"/>
					<path id="XMLID_205_" fill="#C1C2C4" d="M615.1,158.1c-1.2,1.4-2.7,2.7-4.7,3.9c-2,1.1-4.3,2-6.8,2.7c1.4,0.2,3,0.3,4.5,0.1
						c1.4-0.5,2.7-1.1,3.9-1.8c1.2-0.7,2.3-1.4,3.2-2.2C615.5,159.9,615.5,159,615.1,158.1 M606.9,134.2
						c-15.1-8.9-37.3-10.4-49.6-3.5c-12.3,7-10,19.9,5.1,28.8c8.3,4.9,18.8,7.6,28.5,7.8c-0.4-0.4-0.8-0.9-1.1-1.3
						c-8.9-0.4-18.3-2.9-25.8-7.4c-14.2-8.4-16.5-20.5-5.1-26.9c11.4-6.5,32.2-4.9,46.4,3.4c7.5,4.4,11.7,9.9,12.3,15.1
						c0.8,0.2,1.5,0.4,2.3,0.7C619.6,145.2,615.2,139,606.9,134.2"/>
					<path id="XMLID_196_" fill="#CFD1D2" d="M607.5,154c2.1,0.2,3.8,0.8,5.2,1.5c1.2,0.7,2.1,1.6,2.5,2.6c0.4,0.8,0.4,1.7,0,2.6
						c-0.4,0.9-1.2,1.8-2.6,2.6c-1.3,0.8-2.9,1.2-4.5,1.4c-1.5,0.2-3,0.2-4.5-0.1c-1.7-0.3-3.2-0.8-4.5-1.5c-1.3-0.8-2.3-1.8-2.6-3
						c0-0.2-0.1-0.4-0.1-0.6c-0.1-2,1-3.6,2.4-4.4c1.4-0.8,4.1-1.4,7.6-1.3C606.8,153.9,607.1,154,607.5,154 M615.7,178.3
						c-4.2-2.5-2.5-7.4,3.8-10.9c6.3-3.6,14.8-4.5,19-2c4.2,2.5,2.5,7.4-3.8,11C628.3,179.9,619.8,180.8,615.7,178.3 M637.9,158.8
						c-3-1.8-6.2-3.3-8.8-4.4c-2.9-1.3-6-2.6-9.3-3.6c-0.8-0.2-1.5-0.5-2.3-0.7c-2.9-0.8-6-1.4-9.1-1.5c-4.8-0.2-9.8,0.8-14.7,3.6
						c-4.9,2.8-6.6,5.7-6.4,8.4c0.1,1.8,1.1,3.6,2.4,5.3c0.4,0.4,0.7,0.9,1.1,1.3c1.8,1.9,3.9,3.7,6.1,5.4c1.9,1.5,4.4,3.4,7.4,5.2
						c8.9,5.2,22.1,9.7,36,1.8C654.2,171.8,646.8,164.1,637.9,158.8"/>
					<path id="XMLID_12_" fill="#F1F2F2" d="M607.5,152.2c2.1,0.2,3.8,0.8,5.2,1.5c1.2,0.7,2.1,1.6,2.5,2.6c0.4,0.8,0.4,1.7,0,2.6
						c-0.4,0.9-1.2,1.8-2.6,2.6c-1.3,0.8-2.9,1.2-4.5,1.4c-1.5,0.2-3,0.2-4.5-0.1c-1.7-0.3-3.2-0.8-4.5-1.5c-1.3-0.8-2.3-1.8-2.6-3
						c0-0.2-0.1-0.4-0.1-0.6c-0.1-2,1-3.6,2.4-4.4c1.4-0.8,4.1-1.4,7.6-1.3C606.8,152.2,607.2,152.2,607.5,152.2 M615.7,176.5
						c-4.2-2.5-2.5-7.4,3.8-10.9c6.3-3.6,14.8-4.5,19-2c4.2,2.5,2.5,7.4-3.8,11C628.3,178.1,619.9,179,615.7,176.5 M638,157.1
						c-3-1.8-6.2-3.3-8.8-4.4c-2.9-1.3-6-2.6-9.3-3.6c-0.8-0.2-1.5-0.5-2.3-0.7c-2.9-0.8-6-1.4-9.1-1.5c-4.8-0.2-9.8,0.8-14.7,3.6
						c-4.9,2.8-6.6,5.7-6.4,8.4c0.1,1.8,1.1,3.6,2.4,5.3c0.4,0.4,0.7,0.9,1.1,1.3c1.8,1.9,3.9,3.7,6.1,5.4c1.9,1.5,4.4,3.4,7.4,5.2
						c8.9,5.2,22.1,9.7,36,1.8C654.3,170.1,646.9,162.3,638,157.1"/>
				</g>
			</g>
		</g>
		<path id="XMLID_215_" fill="#C4161C" d="M559.8,246.9l-2.8,313.6c-14.4-3.4-27.9-8.5-39.6-15.4c-22.7-13.4-33.9-30.7-33.7-47.9
			l3.1-313.4c-0.2,17.2,11.1,34.5,33.7,47.8C532,238.3,545.4,243.5,559.8,246.9z"/>
	</g>
	<g id="XMLID_179_">
		<path id="XMLID_212_" fill-rule="evenodd" clip-rule="evenodd" fill="#745630" d="M957.7,560.5v-2.2h-75.1v2.6
			c-64.4,4.1-114.4,34.1-114.4,70.5s50,66.4,114.4,70.5v0.5h75.1c71.5,0,129.4-31.8,129.4-71C1087.1,592.3,1029.2,560.5,957.7,560.5
			z"/>
		<path id="XMLID_25_" fill-rule="evenodd" clip-rule="evenodd" fill="#B4B7B9" d="M981.9,397.5l0-6.7l0,0.4v-0.4
			c0,0-260.1,0.8-258.6-0.7l0,241h0.1c1.1,18.4,13.8,36.6,38.1,50.6c50.7,29.3,132.5,29.3,182.8,0c24.1-14,36.6-32.3,37.5-50.6h0.1
			V397.5z"/>
		<path id="XMLID_24_" fill-rule="evenodd" clip-rule="evenodd" fill="#C5C7C5" d="M882.6,391c-73.3,0.1-160.1,0-159.3-0.9l0,241
			h0.1c1.1,18.4,13.8,36.6,38.1,50.6c32.9,19,79,25.7,121.1,20V391z"/>
		<path id="XMLID_23_" fill-rule="evenodd" clip-rule="evenodd" fill="#FBF8FB" d="M943.7,337.5c50.7,29.2,50.9,76.7,0.6,105.9
			c-50.3,29.2-132.2,29.2-182.8,0c-50.7-29.2-50.9-76.6-0.6-105.9C811.3,308.2,893.1,308.2,943.7,337.5"/>
		<path id="XMLID_22_" fill-rule="evenodd" clip-rule="evenodd" fill="#C5C7C5" d="M930.7,345.1c43.4,25.1,43.6,65.7,0.5,90.7
			c-43.1,25.1-113.2,25-156.6,0c-43.4-25.1-43.6-65.7-0.5-90.7C817.2,320,887.3,320,930.7,345.1"/>
		<path id="XMLID_21_" fill-rule="evenodd" clip-rule="evenodd" fill="#3F3027" d="M930.7,385.5c-43.4-25.1-113.5-25-156.6,0
			c-12.5,7.3-21.3,15.8-26.5,24.9c5.3,9.3,14.3,18,27.1,25.4c43.4,25.1,113.5,25.1,156.6,0c12.5-7.3,21.3-15.8,26.6-25
			C952.5,401.6,943.4,392.9,930.7,385.5"/>
		<path id="XMLID_20_" fill-rule="evenodd" clip-rule="evenodd" fill="#4F3E32" d="M751.8,416.7c5.4,6.9,13,13.4,22.8,19.1
			c43.4,25.1,113.5,25.1,156.6,0c9.6-5.6,17-11.9,22.3-18.7c-5.4-6.9-13-13.4-22.8-19.1c-43.4-25.1-113.5-25-156.6,0
			C764.5,403.6,757.1,410,751.8,416.7"/>
		<path id="XMLID_19_" fill-rule="evenodd" clip-rule="evenodd" fill="#D2D5D4" d="M1021,620.8L1021,620.8c-0.6,0.1-1.1,0.1-1.7,0.1
			l0,0c-0.6-0.1-1.2-0.2-1.9-0.4l0,0c-0.7-0.2-1.3-0.5-2-0.9L956,585.3l-22.7,13.2l59.3,34.2l0.3,0.2l0.4,0.2l0.4,0.2l0.4,0.2
			l0.4,0.2l0.1,0l0,0l0.3,0.1l0.4,0.1l0.4,0.1l0.4,0.1l0.3,0h0l0.1,0l0.5,0l0.5,0l0.6-0.1l0,0l0,0l0.7-0.2l0.8-0.4l22.7-13.2
			L1021,620.8z"/>
		<path id="XMLID_18_" fill-rule="evenodd" clip-rule="evenodd" fill="#C5C7C5" d="M992.9,512.7c15.7,9.1,28.4,31,28.3,49.1
			l-0.2,75.7c-0.1,18-12.8,25.3-28.5,16.3l-59.3-34.2l0.1-21l59.3,34.2c5.6,3.2,10.1,0.6,10.2-5.8l0.2-75.7
			c0-6.4-4.5-14.3-10.1-17.5l-59.3-34.2l0.1-21L992.9,512.7z"/>
		<path id="XMLID_138_" fill-rule="evenodd" clip-rule="evenodd" fill="#B4B7B9" d="M1043.9,548.5l-0.2,75.7v0.1l0,1.4l-0.1,1.3
			l0,0.3l0,0.3l-0.1,0.8l-0.2,1.4l-0.1,0.5l-0.1,0.3l-0.1,0.5l-0.4,1.5l-0.1,0.4l-0.1,0.4l-0.2,0.7l-0.6,1.3l-0.1,0.2l0,0.1
			c-0.3,0.7-0.7,1.3-1.1,1.9l0,0c-0.6,0.9-1.3,1.7-2,2.4l-0.5,0.5c-0.7,0.7-1.5,1.3-2.4,1.8l-22.7,13.2c0.9-0.5,1.7-1.1,2.4-1.8
			l0.5-0.5c0.7-0.7,1.4-1.5,2-2.4c0.4-0.6,0.8-1.3,1.1-2l0.1-0.2c0.3-0.6,0.5-1.3,0.8-2l0.1-0.4c0.2-0.8,0.5-1.5,0.6-2.3l0.1-0.3
			c0.2-0.9,0.3-1.7,0.4-2.7l0-0.3c0.1-1,0.1-2,0.1-3.1l0.2-75.8c0-1.1,0-2.2-0.1-3.3l0-0.3c-0.1-1.1-0.2-2.2-0.4-3.3l0-0.1
			c-0.2-1.1-0.4-2.2-0.7-3.3l-0.1-0.3c-0.3-1.1-0.5-2.2-0.9-3.3l-0.1-0.2c-0.3-1.1-0.7-2.3-1.1-3.4l-0.1-0.2
			c-0.4-1.1-0.9-2.2-1.3-3.3l-0.1-0.2c-0.5-1.1-1-2.2-1.5-3.3l-0.2-0.3c-0.5-0.9-0.9-1.8-1.4-2.6l-0.4-0.8l-1-1.5
			c-0.4-0.6-0.8-1.2-1.1-1.8c-0.6-1-1.3-1.9-2-2.8l0,0c-0.7-1-1.5-2-2.3-3l0,0c-0.8-0.9-1.6-1.8-2.4-2.7l-0.2-0.2
			c-0.8-0.8-1.5-1.6-2.3-2.3l-0.3-0.3c-0.8-0.7-1.6-1.4-2.4-2.1l-0.3-0.2c-0.8-0.7-1.7-1.3-2.6-1.9l-0.2-0.1
			c-0.9-0.6-1.9-1.3-2.8-1.8l-59.3-34.2l22.7-13.2l59.3,34.2l0.3,0.2l1.2,0.7l1.2,0.8l0.2,0.1l0.2,0.1l0.9,0.7l1.3,1l0.4,0.3
			l0.3,0.2l0.6,0.5l1.3,1.1l0.6,0.5l0.3,0.3l0.4,0.4l1.2,1.2l0.8,0.8l0.2,0.2l0.2,0.2l1.1,1.2l1.1,1.3l0,0l0,0l1.1,1.3l1.3,1.7
			c0.6,0.8,1.2,1.7,1.8,2.6l0.2,0.3c0.4,0.6,0.8,1.2,1.2,1.8l0.8,1.3l0.2,0.3l0.4,0.7l0.8,1.5l0.6,1.2l0.1,0.3l0.1,0.2l0.7,1.5
			l0.6,1.4l0.1,0.2l0.1,0.2l0.4,1l0.6,1.4l0.3,0.9l0.1,0.2l0.1,0.3l0.5,1.5l0.5,1.5l0.1,0.2l0.1,0.2l0.3,1.1l0.4,1.5l0.2,0.7
			l0.1,0.3l0.1,0.5l0.3,1.5l0.2,1.4l0,0l0,0l0.2,1.4l0.2,1.4l0,0.5l0,0.3l0.1,0.6l0.1,1.4L1043.9,548.5z"/>
		<polygon id="XMLID_16_" fill-rule="evenodd" clip-rule="evenodd" fill="#D2D5D4" points="1015.6,499.5 992.9,512.7 933.6,478.4 
			956.3,465.2 		"/>
	</g>
	<g id="XMLID_260_">
		<polygon id="XMLID_259_" fill-rule="evenodd" clip-rule="evenodd" fill="#745630" points="979.2,972.5 1049.5,972.5 1278.5,842.2 
			1182.8,795.3 		"/>
		<g id="XMLID_190_">
			<polygon id="XMLID_257_" fill-rule="evenodd" clip-rule="evenodd" fill="#8C2A29" points="831.2,821 979.2,906.4 979.2,972.5 
				831.2,887 			"/>
			<polygon id="XMLID_256_" fill-rule="evenodd" clip-rule="evenodd" fill="#6E2020" points="1225.4,764.3 979.2,906.4 979.2,972.5 
				1225.4,830.3 			"/>
			<polygon id="XMLID_255_" fill-rule="evenodd" clip-rule="evenodd" fill="#AA322F" points="831.2,821 1077.5,678.8 1225.4,764.3 
				979.2,906.4 			"/>
			<polygon id="XMLID_254_" fill-rule="evenodd" clip-rule="evenodd" fill="#8C2A29" points="847.4,821 979.2,897.1 1127.7,811.3 
				996,735.2 			"/>
			<polygon id="XMLID_252_" fill-rule="evenodd" clip-rule="evenodd" fill="#AA322F" points="1077.5,678.8 995.4,726.2 
				1143.4,811.6 1225.4,764.3 			"/>
			<path id="XMLID_284_" fill="#FFFFFF" d="M1040.6,847.7c-0.6-0.3-1.1-0.7-1.7-1c1-0.6,1.9-1.1,2.9-1.7c1-0.6,1.9-1.1,2.9-1.7
				c0.8-1.1,1.7-2.2,2.5-3.3c0.8-1.1,1.7-2.2,2.5-3.3c0.6,0.4,1.2,0.7,1.9,1.1c-0.6,0.8-1.3,1.6-1.9,2.4c-0.6,0.8-1.3,1.6-1.9,2.4
				c1.4-0.4,2.7-0.7,4.1-1.1c1.4-0.4,2.7-0.7,4.1-1.1c0.6,0.4,1.2,0.7,1.9,1.1c-1.9,0.5-3.8,1-5.7,1.4c-1.9,0.5-3.8,1-5.7,1.4
				c-1,0.6-1.9,1.1-2.9,1.7C1042.6,846.6,1041.6,847.1,1040.6,847.7 M1040,833.5c0.7-0.4,1.3-0.8,2-1.2c2.5,1.4,4.9,2.9,7.4,4.3
				c-0.7,0.4-1.3,0.8-2,1.2c-1-0.6-1.9-1.1-2.9-1.7c-2,1.1-4,2.3-5.9,3.4c-2,1.1-4,2.3-6,3.4c-0.6-0.3-1.1-0.7-1.6-1
				c2-1.1,4-2.3,5.9-3.4c2-1.1,4-2.3,5.9-3.4C1042,834.6,1041,834.1,1040,833.5z M1025.2,838.6c2.3-1.3,4.6-2.7,6.9-4
				c2.3-1.3,4.6-2.7,6.9-4c0.5,0.3,1.1,0.6,1.6,0.9c-2.3,1.3-4.6,2.7-6.9,4c-2.3,1.3-4.6,2.7-6.9,4
				C1026.3,839.2,1025.7,838.9,1025.2,838.6z M1023.9,837.8c-1.9-1.1-3.7-2.2-5.5-3.3c2.3-1.3,4.6-2.6,6.9-4c2.3-1.3,4.6-2.6,6.9-4
				c0.5,0.3,1.1,0.6,1.6,0.9c-2,1.1-3.9,2.3-5.9,3.4c-2,1.1-3.9,2.3-5.9,3.4c1.3,0.8,2.6,1.5,3.9,2.3
				C1025.2,837,1024.6,837.4,1023.9,837.8z M1024.4,824.3c-1.4,0.5-2.7,1.1-4.1,1.6c-1.4,0.5-2.7,1.1-4.1,1.6c1,0.6,2.1,1.2,3.1,1.8
				c1-0.8,1.9-1.6,2.9-2.4c1-0.8,1.9-1.6,2.9-2.4C1024.9,824.6,1024.6,824.4,1024.4,824.3z M1008.9,829c2.7-1.1,5.3-2.2,8-3.2
				c2.7-1.1,5.4-2.2,8.1-3.2c1.1,0.6,2.1,1.2,3.2,1.8c-1.9,1.6-3.8,3.1-5.6,4.7c-1.9,1.6-3.8,3.1-5.6,4.7c-0.6-0.3-1.1-0.6-1.6-1
				c0.8-0.7,1.6-1.3,2.4-2c-1.3-0.7-2.5-1.5-3.8-2.2c-1.2,0.5-2.3,0.9-3.5,1.4C1010,829.6,1009.4,829.3,1008.9,829z M1006.5,822.5
				c-1.8,1-2,1.9-0.7,2.7c1.3,0.8,2.9,0.7,4.6-0.4c1.5-0.9,3.1-1.8,4.6-2.7c1.5-0.9,3.1-1.8,4.6-2.7c0.5,0.3,1.1,0.6,1.6,0.9
				c-1.5,0.9-3.1,1.8-4.6,2.7c-1.5,0.9-3.1,1.8-4.6,2.7c-1.6,0.9-3.1,1.4-4.4,1.5c-1.3,0.1-2.6-0.2-3.8-0.9
				c-1.2-0.7-1.7-1.4-1.6-2.2c0.1-0.8,1-1.6,2.6-2.5c1.5-0.9,3.1-1.8,4.6-2.7c1.5-0.9,3.1-1.8,4.6-2.7c0.5,0.3,1.1,0.6,1.6,0.9
				c-1.5,0.9-3.1,1.8-4.6,2.7C1009.6,820.7,1008,821.6,1006.5,822.5z M996,818.1c-0.5,0.6-0.2,1.2,0.7,1.7c0.9,0.5,1.9,0.7,2.9,0.4
				c1.1-0.3,2.5-0.9,4.3-1.9c1.8-1,3-1.9,3.5-2.6c0.5-0.7,0.3-1.2-0.6-1.8c-0.9-0.5-1.9-0.6-3-0.3c-1.1,0.3-2.6,0.9-4.4,2
				C997.6,816.6,996.5,817.4,996,818.1z M994.8,820.9c-1.4-0.8-1.9-1.8-1.4-2.7c0.3-0.5,0.8-1,1.5-1.6c0.7-0.6,1.7-1.2,2.9-1.9
				c1.2-0.7,2.3-1.2,3.3-1.7c1-0.4,2-0.7,2.9-0.9c1.7-0.3,3.3-0.1,4.8,0.8c1.5,0.8,1.9,1.8,1.3,2.8c-0.3,0.5-0.8,1.1-1.5,1.6
				c-0.8,0.6-1.7,1.2-2.9,1.9c-1.6,0.9-3,1.6-4.2,2c-1.2,0.4-2.3,0.6-3.4,0.6c-0.5,0.7-1,1.5-1.5,2.2c-0.8-0.1-1.6-0.2-2.4-0.3
				c0.5-0.8,1.1-1.6,1.6-2.4C995.5,821.3,995.1,821.1,994.8,820.9z M976.9,810.1c2.2-1.3,4.4-2.6,6.7-3.8c2.2-1.3,4.4-2.6,6.7-3.8
				c0.9,0.5,1.8,1,2.7,1.5c-1.4,1.2-2.8,2.4-4.2,3.6c-1.4,1.2-2.8,2.4-4.2,3.6c2.1-0.8,4.2-1.6,6.3-2.4c2.1-0.8,4.2-1.6,6.3-2.4
				c0.9,0.5,1.8,1,2.7,1.6c-2.2,1.3-4.5,2.6-6.7,3.9c-2.2,1.3-4.5,2.6-6.7,3.9c-0.5-0.3-1-0.6-1.5-0.9c1.8-1.1,3.7-2.1,5.5-3.2
				c1.8-1.1,3.7-2.1,5.5-3.2c-0.1,0-0.1-0.1-0.2-0.1c-2.1,0.8-4.2,1.6-6.3,2.4c-2.1,0.8-4.2,1.6-6.3,2.4c-0.5-0.3-1.1-0.6-1.6-0.9
				c1.4-1.2,2.7-2.4,4.1-3.7c1.4-1.2,2.7-2.4,4.1-3.6c-0.1,0-0.1-0.1-0.2-0.1c-1.8,1.1-3.6,2.1-5.5,3.2c-1.8,1.1-3.6,2.1-5.5,3.2
				C977.9,810.7,977.4,810.4,976.9,810.1z M973.8,803.3c-1.7,1-1.9,1.9-0.7,2.6c1.3,0.7,2.7,0.6,4.5-0.4c1.5-0.9,3-1.7,4.5-2.6
				c1.5-0.9,3-1.7,4.5-2.6c0.5,0.3,1,0.6,1.5,0.9c-1.5,0.9-3,1.7-4.5,2.6c-1.5,0.9-3,1.7-4.5,2.6c-1.6,0.9-3,1.4-4.3,1.5
				c-1.3,0.1-2.5-0.2-3.6-0.9c-1.1-0.7-1.6-1.4-1.4-2.1c0.2-0.7,1-1.6,2.6-2.5c1.5-0.9,3-1.7,4.5-2.6c1.5-0.9,3-1.7,4.5-2.6
				c0.5,0.3,1,0.6,1.5,0.9c-1.5,0.9-3,1.7-4.5,2.6C976.8,801.6,975.3,802.5,973.8,803.3z M964.6,802.8c2.2-1.3,4.4-2.5,6.6-3.8
				c2.2-1.3,4.4-2.5,6.6-3.8c0.5,0.3,1,0.6,1.5,0.9c-2.2,1.3-4.4,2.5-6.6,3.8c-2.2,1.3-4.4,2.5-6.6,3.8
				C965.6,803.4,965.1,803.1,964.6,802.8z M953.4,796.3c2.2-1.3,4.4-2.5,6.5-3.8c2.2-1.3,4.3-2.5,6.5-3.8c0.8,0.5,1.7,1,2.5,1.5
				c-1.4,1.2-2.7,2.4-4.1,3.5c-1.4,1.2-2.7,2.4-4.1,3.5c2-0.8,4.1-1.6,6.1-2.4c2-0.8,4.1-1.6,6.1-2.4c0.9,0.5,1.7,1,2.6,1.5
				c-2.2,1.3-4.4,2.5-6.6,3.8s-4.4,2.5-6.6,3.8c-0.5-0.3-1-0.6-1.5-0.9c1.8-1,3.6-2.1,5.4-3.1c1.8-1,3.6-2.1,5.4-3.1
				c-0.1,0-0.1-0.1-0.2-0.1c-2.1,0.8-4.2,1.5-6.2,2.3c-2.1,0.8-4.1,1.6-6.2,2.3c-0.5-0.3-1-0.6-1.5-0.9c1.3-1.2,2.7-2.4,4-3.6
				c1.3-1.2,2.7-2.4,4-3.6c-0.1,0-0.1-0.1-0.2-0.1c-1.8,1-3.6,2.1-5.4,3.1c-1.8,1-3.6,2.1-5.4,3.1
				C954.4,796.8,953.9,796.5,953.4,796.3z M946.2,792c2.2-1.3,4.3-2.5,6.5-3.8c2.2-1.2,4.3-2.5,6.5-3.8c1.9,1.1,3.8,2.2,5.6,3.3
				c-0.6,0.4-1.2,0.7-1.8,1.1c-1.4-0.8-2.8-1.6-4.2-2.4c-1.2,0.7-2.5,1.4-3.7,2.1c1.1,0.7,2.3,1.3,3.4,2c-0.6,0.4-1.2,0.7-1.8,1.1
				c-1.1-0.7-2.3-1.3-3.4-2c-1.3,0.7-2.5,1.5-3.8,2.2c1.4,0.8,2.8,1.6,4.2,2.4c-0.6,0.4-1.2,0.7-1.9,1.1
				C950,794.2,948.1,793.1,946.2,792z M952,785.1c1.6-0.9,1.8-1.6,0.8-2.2c-0.6-0.4-1.3-0.7-1.9-1.1c-0.8,0.5-1.6,0.9-2.4,1.4
				c-0.8,0.5-1.6,0.9-2.3,1.4c0.6,0.4,1.3,0.8,1.9,1.1c0.5,0.3,1.1,0.4,1.8,0.3C950.6,785.8,951.3,785.5,952,785.1z M944.4,785.5
				c-0.8,0.4-1.5,0.9-2.3,1.3c-0.8,0.4-1.5,0.9-2.3,1.3c-0.5-0.3-1-0.6-1.4-0.8c2.2-1.2,4.3-2.5,6.5-3.7c2.2-1.2,4.3-2.5,6.5-3.7
				c1.1,0.6,2.2,1.3,3.3,1.9c1,0.6,1.4,1.2,1.2,1.9c-0.2,0.7-1,1.4-2.3,2.2c-1.8,1.1-3.6,1.5-5.2,1.3c-0.6,0.6-1.2,1.3-1.8,1.9
				c-0.6,0.6-1.2,1.3-1.8,1.9c-0.5-0.3-1-0.6-1.6-0.9c0.6-0.6,1.1-1.1,1.7-1.7c0.6-0.6,1.1-1.1,1.7-1.7
				C945.7,786.3,945,785.9,944.4,785.5z M938.1,780.4c0.6,0.3,1.2,0.7,1.8,1c1,0.6,2.4,0.4,4.3-0.7c0.9-0.5,1.4-0.9,1.5-1.3
				c0.2-0.4,0-0.7-0.6-1c-0.6-0.3-1.2-0.7-1.8-1c-0.9,0.5-1.8,1-2.6,1.5C939.8,779.4,938.9,779.9,938.1,780.4z M938,782.5
				c-0.6-0.4-1.2-0.7-1.8-1c-0.7,0.4-1.3,0.8-2,1.2c-0.7,0.4-1.3,0.8-2,1.2c-0.5-0.3-0.9-0.6-1.4-0.8c2.1-1.2,4.3-2.5,6.4-3.7
				c2.1-1.2,4.3-2.5,6.4-3.7c1.1,0.6,2.1,1.2,3.2,1.8c1,0.6,1.4,1.2,1.2,1.9c-0.2,0.7-1.1,1.5-2.5,2.3c-1.5,0.9-2.9,1.4-4.1,1.5
				C940.1,783.3,939,783.1,938,782.5z"/>
			<polygon id="XMLID_231_" fill-rule="evenodd" clip-rule="evenodd" fill="#FFFFFF" points="1085.3,683.4 1003.2,730.7 
				1005.7,732.1 1087.8,684.8 			"/>
			<polygon id="XMLID_230_" fill-rule="evenodd" clip-rule="evenodd" fill="#FFFFFF" points="1213.6,757.4 1131.5,804.8 1134,806.2 
				1216,758.8 			"/>
			<path id="XMLID_265_" fill="#FFFFFF" d="M1146.9,781.5c-2-1.2-3.7-1.3-5.2-0.5c-0.7,0.4-1,0.9-0.9,1.3c0.1,0.5,0.8,1.3,1.9,2.5
				c1.1,1.2,1.7,2.2,1.8,3c0,0.8-0.7,1.5-2.1,2.3c-1.8,1-3.6,1.5-5.4,1.4c-1.8-0.1-3.6-0.6-5.2-1.6c-1.3-0.8-2.6-1.7-3.9-2.9
				c-0.2-0.2-0.4-0.4-0.7-0.6c0.8-0.4,1.6-0.7,2.4-1.1c1.8,1.4,3.2,2.4,4.4,3.1c1.9,1.1,3.8,1.2,5.6,0.2c0.7-0.4,1-0.8,0.9-1.3
				c-0.1-0.5-0.7-1.2-1.9-2.4c-1.1-1.1-1.7-2.1-1.8-2.9c0-0.8,0.7-1.7,2.2-2.6c1.5-0.9,3.1-1.2,4.8-1.1c1.7,0.1,3.4,0.6,5.1,1.6
				c1.2,0.7,2.5,1.6,3.9,2.7c0.2,0.2,0.5,0.4,0.7,0.6c-0.8,0.4-1.6,0.8-2.4,1.2C1149.2,783,1147.8,782,1146.9,781.5 M1114.9,779.6
				c2.7-1.6,5.5-3.2,8.3-4.8c2.7-1.6,5.5-3.2,8.3-4.8c3.3,1.9,6.7,3.8,10,5.8c-0.8,0.5-1.6,0.9-2.4,1.4c-2.5-1.4-5-2.9-7.5-4.3
				c-0.8,0.5-1.6,0.9-2.3,1.4c-0.8,0.4-1.6,0.9-2.3,1.4c2,1.2,4,2.3,6,3.5c-0.8,0.4-1.6,0.9-2.3,1.3c-2-1.2-4-2.4-6-3.5
				c-0.8,0.5-1.6,0.9-2.4,1.4c-0.8,0.5-1.6,0.9-2.4,1.4c2.5,1.4,4.9,2.9,7.4,4.4c-0.8,0.5-1.6,0.9-2.4,1.4
				C1121.5,783.5,1118.2,781.6,1114.9,779.6z M1115.6,763.7c0.8-0.5,1.6-0.9,2.4-1.4c3.8,2.2,7.6,4.4,11.4,6.6
				c-0.8,0.5-1.6,0.9-2.4,1.4c-1.5-0.9-2.9-1.7-4.4-2.6c-2.3,1.4-4.7,2.7-7,4.1c-2.3,1.4-4.7,2.7-7,4.1c-0.8-0.5-1.7-1-2.5-1.5
				c2.3-1.3,4.7-2.7,7-4s4.7-2.7,7-4C1118.5,765.4,1117,764.5,1115.6,763.7z M1103.8,756.9c0.8-0.5,1.6-0.9,2.3-1.4
				c3.7,2.1,7.4,4.3,11.2,6.5c-0.8,0.5-1.6,0.9-2.4,1.4c-1.5-0.8-2.9-1.7-4.3-2.5c-2.3,1.3-4.6,2.7-7,4c-2.3,1.3-4.6,2.7-7,4
				c-0.8-0.5-1.7-1-2.5-1.5c2.3-1.3,4.6-2.7,6.9-4c2.3-1.3,4.6-2.7,7-4C1106.7,758.6,1105.3,757.7,1103.8,756.9z M1079.4,758.6
				c2.7-1.5,5.4-3.1,8-4.6c2.7-1.5,5.4-3.1,8-4.6c3.1,1.8,6.3,3.6,9.5,5.5c-0.8,0.4-1.5,0.9-2.3,1.3c-2.4-1.4-4.7-2.7-7-4.1
				c-0.8,0.4-1.5,0.9-2.3,1.3c-0.8,0.4-1.5,0.9-2.3,1.3c1.9,1.1,3.8,2.2,5.7,3.3c-0.8,0.4-1.5,0.9-2.3,1.3c-1.9-1.1-3.8-2.2-5.7-3.3
				c-0.8,0.5-1.6,0.9-2.4,1.4c-0.8,0.5-1.6,0.9-2.3,1.4c2.3,1.4,4.6,2.7,7,4.1c-0.8,0.4-1.5,0.9-2.3,1.3
				C1085.6,762.3,1082.5,760.5,1079.4,758.6z M1085.1,749.3c1.9-1.1,2-2.2,0.3-3.1c-1.1-0.6-2.1-1.2-3.2-1.8c-1,0.6-1.9,1.1-2.9,1.7
				c-1,0.6-1.9,1.1-2.9,1.7c1.1,0.6,2.1,1.3,3.2,1.9c0.9,0.5,1.8,0.7,2.7,0.6C1083.3,750.1,1084.3,749.8,1085.1,749.3z
				 M1074.3,748.9c-0.9,0.5-1.9,1.1-2.8,1.6c-0.9,0.5-1.9,1.1-2.8,1.6c-0.8-0.5-1.6-0.9-2.4-1.4c2.6-1.5,5.3-3.1,7.9-4.6
				c2.6-1.5,5.3-3.1,7.9-4.6c1.9,1.1,3.7,2.1,5.6,3.2c1.7,1,2.5,1.9,2.5,2.9c0,1-0.9,2-2.6,2.9c-1.1,0.7-2.3,1.1-3.5,1.3
				c-1.2,0.2-2.4,0.2-3.6,0c-0.7,0.8-1.3,1.7-1.9,2.5c-0.7,0.8-1.3,1.7-1.9,2.5c-0.9-0.5-1.7-1-2.6-1.5c0.6-0.8,1.2-1.5,1.8-2.3
				c0.6-0.8,1.2-1.5,1.8-2.3C1076.5,750.3,1075.4,749.6,1074.3,748.9z M1071.4,738c-1.6,0.6-3.3,1.2-4.9,1.8
				c-1.6,0.6-3.3,1.2-4.9,1.8c1.5,0.9,3,1.8,4.6,2.7c1-0.9,2.1-1.9,3.1-2.8c1-0.9,2.1-1.9,3.1-2.8
				C1072.1,738.4,1071.8,738.2,1071.4,738z M1052.5,742.7c3.2-1.2,6.4-2.3,9.6-3.5c3.2-1.2,6.4-2.3,9.7-3.5c1.5,0.9,3.1,1.8,4.6,2.7
				c-2,1.9-4.1,3.7-6.1,5.6c-2,1.9-4.1,3.8-6.1,5.6c-0.8-0.5-1.6-0.9-2.4-1.4c0.9-0.8,1.7-1.6,2.6-2.4c-1.8-1.1-3.7-2.2-5.5-3.2
				c-1.4,0.5-2.8,1-4.1,1.5C1054,743.6,1053.3,743.2,1052.5,742.7z M1052.8,735.9c0.7-0.4,1.5-0.9,2.2-1.3c1.3,0.8,2.7,1.6,4,2.4
				c-1.3,0.8-2.7,1.5-4,2.3c-1.3,0.8-2.7,1.5-4,2.3c-0.5-0.2-1.3-0.5-2.6-1.1c-1.2-0.6-2.1-1-2.6-1.3c-2.1-1.3-2.9-2.5-2.4-3.7
				c0.3-0.6,0.8-1.3,1.6-2c0.8-0.7,1.9-1.5,3.3-2.3c1.4-0.8,2.7-1.4,3.9-1.9c1.2-0.5,2.4-0.8,3.4-0.9c2.1-0.3,4.2,0.2,6.2,1.4
				c1.2,0.7,2.4,1.6,3.7,2.6c0.2,0.2,0.4,0.3,0.6,0.5c-0.7,0.4-1.4,0.7-2.1,1.1c-1.4-1.1-2.8-2.1-4.1-2.8c-1.3-0.8-2.6-1-3.9-0.9
				c-0.7,0.1-1.4,0.3-2.3,0.7c-0.9,0.4-1.9,0.9-3,1.5c-1.1,0.6-2,1.2-2.7,1.7c-0.7,0.5-1.1,1-1.3,1.3c-0.4,0.8,0.1,1.5,1.5,2.4
				c1,0.6,1.8,1,2.4,1.2c1.3-0.7,2.5-1.5,3.8-2.2C1054,736.6,1053.4,736.2,1052.8,735.9z M1035.8,732.8c2.6-1.5,5.2-3,7.8-4.5
				c2.6-1.5,5.2-3,7.8-4.5c0.7,0.4,1.5,0.9,2.3,1.3c-2.6,1.5-5.2,3-7.8,4.5c-2.6,1.5-5.2,3-7.8,4.5
				C1037.2,733.7,1036.5,733.2,1035.8,732.8z M1029.2,729.2c-2-1.2-2.7-2.3-2.2-3.5c0.3-0.6,0.8-1.2,1.7-1.9c0.9-0.7,2-1.4,3.4-2.3
				c1.4-0.8,2.7-1.5,3.9-2c1.2-0.5,2.3-0.8,3.2-0.9c1.9-0.3,3.9,0.2,5.9,1.3c1.2,0.7,2.3,1.6,3.4,2.6c-0.7,0.4-1.4,0.8-2.1,1.1
				c-1-0.8-2.1-1.6-3.3-2.3c-1.2-0.7-2.4-0.9-3.7-0.7c-0.6,0.1-1.3,0.4-2.2,0.7c-0.9,0.4-1.8,0.9-2.9,1.5c-1.1,0.6-2,1.2-2.6,1.7
				c-0.7,0.5-1.1,0.9-1.3,1.3c-0.4,0.7,0,1.4,1.2,2.1c1.2,0.7,2.5,1.4,4,2c-0.7,0.4-1.4,0.8-2,1.2
				C1031.9,730.6,1030.5,729.9,1029.2,729.2z"/>
			<polygon id="XMLID_194_" fill-rule="evenodd" clip-rule="evenodd" fill="#8C2A29" points="993.9,727.1 1141.8,812.5 
				1143.4,811.6 995.4,726.2 			"/>
			<polygon id="XMLID_192_" fill-rule="evenodd" clip-rule="evenodd" fill="#571816" points="1141.8,812.5 1201.1,844.3 
				1202.7,843.4 1143.4,811.6 1223.8,765.2 1223.8,765.2 			"/>
		</g>
	</g>
</g>
</svg>
